<?xml version="1.0" encoding="UTF-8" standalone="no"?>
<!DOCTYPE svg PUBLIC "-//W3C//DTD SVG 1.0//EN" "http://www.w3.org/TR/2001/REC-SVG-20010904/DTD/svg10.dtd">
<!-- Generated by Microsoft Visio 11.0, SVG Export, v1.0 operation_of_doubleword_vext_for_imm_3.svg Page-1 -->
<!-- Copyright (c) 2014 ARM Limited or its affiliates. All rights reserved. -->
<svg xmlns="http://www.w3.org/2000/svg" 
     xmlns:xlink="http://www.w3.org/1999/xlink" 
     xmlns:v="http://schemas.microsoft.com/visio/2003/SVGExtensions/" width="3.01018in"
     height="1.27095in" viewBox="0 0 216.733 91.5087" xml:space="preserve" color-interpolation-filters="sRGB" class="st8">
	<v:documentProperties v:langID="1033" v:metric="true" v:viewMarkup="false"/>

	<style type="text/css">
	<![CDATA[
		.st1 {fill:#000000;font-family:Arial;font-size:0.666664em}
		.st2 {fill:none;visibility:hidden}
		.st3 {stroke:#000000;stroke-linecap:butt;stroke-width:0.8}
		.st4 {stroke:#000000;stroke-linecap:butt;stroke-width:0.5}
		.st5 {fill:none;stroke:none;stroke-linecap:butt;stroke-width:0.5}
		.st6 {marker-start:url(#mrkr4-119);stroke:#000000;stroke-linecap:butt;stroke-width:0.5}
		.st7 {fill:#000000;fill-opacity:1;stroke:#000000;stroke-opacity:1;stroke-width:0.21739130434783}
		.st8 {fill:none;fill-rule:evenodd;font-size:12;overflow:visible;stroke-linecap:square;stroke-miterlimit:3}
	]]>
	</style>

	<defs id="Markers">
		<g id="lend4">
			<path d="M 2 1 L -0 0 L 2 -1 L 2 1 " style="stroke:none"/>
		</g>
		<marker id="mrkr4-119" class="st7" v:arrowType="4" v:arrowSize="1" v:setback="8.48" refX="8.48" orient="auto"
				markerUnits="strokeWidth">
			<use xlink:href="#lend4" transform="scale(4.6) "/>
		</marker>
	</defs>
	<g v:mID="0" v:index="1" v:groupContext="foregroundPage">
		<title>Page-1</title>
		<v:pageProperties v:drawingScale="0.0393701" v:pageScale="0.0393701" v:drawingUnits="24" v:shadowOffsetX="8.50394"
				v:shadowOffsetY="-8.50394"/>
		<g id="shape1-1" v:mID="1" v:groupContext="shape" transform="translate(125.224,-80.1701)">
			<title>Sheet.1</title>
			<desc>7</desc>
			<v:textBlock v:margins="rect(0,0,0,0)" v:tabSpace="42.5197"/>
			<v:textRect cx="5.66929" cy="85.8394" width="11.34" height="11.3386"/>
			<text x="3.44" y="88.24" class="st1" v:langID="1033"><v:paragraph v:horizAlign="1"/><v:tabList/>7</text>		</g>
		<g id="shape2-3" v:mID="2" v:groupContext="shape" transform="translate(136.563,-80.1701)">
			<title>Sheet.2</title>
			<desc>6</desc>
			<v:textBlock v:margins="rect(0,0,0,0)" v:tabSpace="42.5197"/>
			<v:textRect cx="5.66929" cy="85.8394" width="11.34" height="11.3386"/>
			<text x="3.44" y="88.24" class="st1" v:langID="1033"><v:paragraph v:horizAlign="1"/><v:tabList/>6</text>		</g>
		<g id="shape3-5" v:mID="3" v:groupContext="shape" transform="translate(147.902,-80.1701)">
			<title>Sheet.3</title>
			<desc>5</desc>
			<v:textBlock v:margins="rect(0,0,0,0)" v:tabSpace="42.5197"/>
			<v:textRect cx="5.66929" cy="85.8394" width="11.34" height="11.3386"/>
			<text x="3.44" y="88.24" class="st1" v:langID="1033"><v:paragraph v:horizAlign="1"/><v:tabList/>5</text>		</g>
		<g id="shape4-7" v:mID="4" v:groupContext="shape" transform="translate(159.24,-80.1701)">
			<title>Sheet.4</title>
			<desc>4</desc>
			<v:textBlock v:margins="rect(0,0,0,0)" v:tabSpace="42.5197"/>
			<v:textRect cx="5.66929" cy="85.8394" width="11.34" height="11.3386"/>
			<text x="3.44" y="88.24" class="st1" v:langID="1033"><v:paragraph v:horizAlign="1"/><v:tabList/>4</text>		</g>
		<g id="shape5-9" v:mID="5" v:groupContext="shape" transform="translate(170.579,-80.1701)">
			<title>Sheet.5</title>
			<desc>3</desc>
			<v:textBlock v:margins="rect(0,0,0,0)" v:tabSpace="42.5197"/>
			<v:textRect cx="5.66929" cy="85.8394" width="11.34" height="11.3386"/>
			<text x="3.44" y="88.24" class="st1" v:langID="1033"><v:paragraph v:horizAlign="1"/><v:tabList/>3</text>		</g>
		<g id="shape6-11" v:mID="6" v:groupContext="shape" transform="translate(181.917,-80.1701)">
			<title>Sheet.6</title>
			<desc>2</desc>
			<v:textBlock v:margins="rect(0,0,0,0)" v:tabSpace="42.5197"/>
			<v:textRect cx="5.66929" cy="85.8394" width="11.34" height="11.3386"/>
			<text x="3.44" y="88.24" class="st1" v:langID="1033"><v:paragraph v:horizAlign="1"/><v:tabList/>2</text>		</g>
		<g id="shape7-13" v:mID="7" v:groupContext="shape" transform="translate(193.256,-80.1701)">
			<title>Sheet.7</title>
			<desc>1</desc>
			<v:textBlock v:margins="rect(0,0,0,0)" v:tabSpace="42.5197"/>
			<v:textRect cx="5.66929" cy="85.8394" width="11.34" height="11.3386"/>
			<text x="3.44" y="88.24" class="st1" v:langID="1033"><v:paragraph v:horizAlign="1"/><v:tabList/>1</text>		</g>
		<g id="shape8-15" v:mID="8" v:groupContext="shape" transform="translate(204.594,-80.1701)">
			<title>Sheet.8</title>
			<desc>0</desc>
			<v:textBlock v:margins="rect(0,0,0,0)" v:tabSpace="42.5197"/>
			<v:textRect cx="5.66929" cy="85.8394" width="11.34" height="11.3386"/>
			<text x="3.44" y="88.24" class="st1" v:langID="1033"><v:paragraph v:horizAlign="1"/><v:tabList/>0</text>		</g>
		<g id="shape9-17" v:mID="9" v:groupContext="shape" transform="translate(125.224,-63.1622)">
			<title>Sheet.9</title>
			<rect x="0" y="74.5008" width="90.7087" height="17.0079" class="st2"/>
			<rect x="0" y="74.5008" width="90.7087" height="17.0079" class="st3"/>
		</g>
		<g id="shape10-20" v:mID="10" v:groupContext="shape" transform="translate(136.563,-63.1622)">
			<title>Sheet.10</title>
			<path d="M0 74.5 L0 91.51" class="st4"/>
		</g>
		<g id="shape11-23" v:mID="11" v:groupContext="shape" transform="translate(147.902,-63.1622)">
			<title>Sheet.11</title>
			<path d="M0 74.5 L0 91.51" class="st4"/>
		</g>
		<g id="shape12-26" v:mID="12" v:groupContext="shape" transform="translate(159.24,-63.1622)">
			<title>Sheet.12</title>
			<path d="M0 74.5 L0 91.51" class="st4"/>
		</g>
		<g id="shape13-29" v:mID="13" v:groupContext="shape" transform="translate(170.579,-63.1622)">
			<title>Sheet.13</title>
			<path d="M0 74.5 L0 91.51" class="st4"/>
		</g>
		<g id="shape14-32" v:mID="14" v:groupContext="shape" transform="translate(181.917,-63.1622)">
			<title>Sheet.14</title>
			<path d="M0 74.5 L0 91.51" class="st4"/>
		</g>
		<g id="shape15-35" v:mID="15" v:groupContext="shape" transform="translate(193.256,-63.1622)">
			<title>Sheet.15</title>
			<path d="M0 74.5 L0 91.51" class="st4"/>
		</g>
		<g id="shape16-38" v:mID="16" v:groupContext="shape" transform="translate(204.594,-63.1622)">
			<title>Sheet.16</title>
			<path d="M0 74.5 L0 91.51" class="st4"/>
		</g>
		<g id="shape17-41" v:mID="17" v:groupContext="shape" transform="translate(125.224,-0.8)">
			<title>Sheet.17</title>
			<rect x="0" y="74.5008" width="90.7087" height="17.0079" class="st2"/>
			<rect x="0" y="74.5008" width="90.7087" height="17.0079" class="st3"/>
		</g>
		<g id="shape18-44" v:mID="18" v:groupContext="shape" transform="translate(136.563,-0.8)">
			<title>Sheet.18</title>
			<path d="M0 74.5 L0 91.51" class="st4"/>
		</g>
		<g id="shape19-47" v:mID="19" v:groupContext="shape" transform="translate(147.902,-0.8)">
			<title>Sheet.19</title>
			<path d="M0 74.5 L0 91.51" class="st4"/>
		</g>
		<g id="shape20-50" v:mID="20" v:groupContext="shape" transform="translate(159.24,-0.8)">
			<title>Sheet.20</title>
			<path d="M0 74.5 L0 91.51" class="st4"/>
		</g>
		<g id="shape21-53" v:mID="21" v:groupContext="shape" transform="translate(170.579,-0.8)">
			<title>Sheet.21</title>
			<path d="M0 74.5 L0 91.51" class="st4"/>
		</g>
		<g id="shape22-56" v:mID="22" v:groupContext="shape" transform="translate(181.917,-0.8)">
			<title>Sheet.22</title>
			<path d="M0 74.5 L0 91.51" class="st4"/>
		</g>
		<g id="shape23-59" v:mID="23" v:groupContext="shape" transform="translate(193.256,-0.8)">
			<title>Sheet.23</title>
			<path d="M0 74.5 L0 91.51" class="st4"/>
		</g>
		<g id="shape24-62" v:mID="24" v:groupContext="shape" transform="translate(204.594,-0.8)">
			<title>Sheet.24</title>
			<path d="M0 74.5 L0 91.51" class="st4"/>
		</g>
		<g id="shape25-65" v:mID="25" v:groupContext="shape" transform="translate(17.5079,-80.1701)">
			<title>Sheet.25</title>
			<desc>7</desc>
			<v:textBlock v:margins="rect(0,0,0,0)" v:tabSpace="42.5197"/>
			<v:textRect cx="5.66929" cy="85.8394" width="11.34" height="11.3386"/>
			<text x="3.44" y="88.24" class="st1" v:langID="1033"><v:paragraph v:horizAlign="1"/><v:tabList/>7</text>		</g>
		<g id="shape26-67" v:mID="26" v:groupContext="shape" transform="translate(28.8465,-80.1701)">
			<title>Sheet.26</title>
			<desc>6</desc>
			<v:textBlock v:margins="rect(0,0,0,0)" v:tabSpace="42.5197"/>
			<v:textRect cx="5.66929" cy="85.8394" width="11.34" height="11.3386"/>
			<text x="3.44" y="88.24" class="st1" v:langID="1033"><v:paragraph v:horizAlign="1"/><v:tabList/>6</text>		</g>
		<g id="shape27-69" v:mID="27" v:groupContext="shape" transform="translate(40.185,-80.1701)">
			<title>Sheet.27</title>
			<desc>5</desc>
			<v:textBlock v:margins="rect(0,0,0,0)" v:tabSpace="42.5197"/>
			<v:textRect cx="5.66929" cy="85.8394" width="11.34" height="11.3386"/>
			<text x="3.44" y="88.24" class="st1" v:langID="1033"><v:paragraph v:horizAlign="1"/><v:tabList/>5</text>		</g>
		<g id="shape28-71" v:mID="28" v:groupContext="shape" transform="translate(51.5236,-80.1701)">
			<title>Sheet.28</title>
			<desc>4</desc>
			<v:textBlock v:margins="rect(0,0,0,0)" v:tabSpace="42.5197"/>
			<v:textRect cx="5.66929" cy="85.8394" width="11.34" height="11.3386"/>
			<text x="3.44" y="88.24" class="st1" v:langID="1033"><v:paragraph v:horizAlign="1"/><v:tabList/>4</text>		</g>
		<g id="shape29-73" v:mID="29" v:groupContext="shape" transform="translate(62.8622,-80.1701)">
			<title>Sheet.29</title>
			<desc>3</desc>
			<v:textBlock v:margins="rect(0,0,0,0)" v:tabSpace="42.5197"/>
			<v:textRect cx="5.66929" cy="85.8394" width="11.34" height="11.3386"/>
			<text x="3.44" y="88.24" class="st1" v:langID="1033"><v:paragraph v:horizAlign="1"/><v:tabList/>3</text>		</g>
		<g id="shape30-75" v:mID="30" v:groupContext="shape" transform="translate(74.2008,-80.1701)">
			<title>Sheet.30</title>
			<desc>2</desc>
			<v:textBlock v:margins="rect(0,0,0,0)" v:tabSpace="42.5197"/>
			<v:textRect cx="5.66929" cy="85.8394" width="11.34" height="11.3386"/>
			<text x="3.44" y="88.24" class="st1" v:langID="1033"><v:paragraph v:horizAlign="1"/><v:tabList/>2</text>		</g>
		<g id="shape31-77" v:mID="31" v:groupContext="shape" transform="translate(85.5394,-80.1701)">
			<title>Sheet.31</title>
			<desc>1</desc>
			<v:textBlock v:margins="rect(0,0,0,0)" v:tabSpace="42.5197"/>
			<v:textRect cx="5.66929" cy="85.8394" width="11.34" height="11.3386"/>
			<text x="3.44" y="88.24" class="st1" v:langID="1033"><v:paragraph v:horizAlign="1"/><v:tabList/>1</text>		</g>
		<g id="shape32-79" v:mID="32" v:groupContext="shape" transform="translate(96.878,-80.1701)">
			<title>Sheet.32</title>
			<desc>0</desc>
			<v:textBlock v:margins="rect(0,0,0,0)" v:tabSpace="42.5197"/>
			<v:textRect cx="5.66929" cy="85.8394" width="11.34" height="11.3386"/>
			<text x="3.44" y="88.24" class="st1" v:langID="1033"><v:paragraph v:horizAlign="1"/><v:tabList/>0</text>		</g>
		<g id="shape33-81" v:mID="33" v:groupContext="shape" transform="translate(17.5079,-63.1622)">
			<title>Sheet.33</title>
			<rect x="0" y="74.5008" width="90.7087" height="17.0079" class="st2"/>
			<rect x="0" y="74.5008" width="90.7087" height="17.0079" class="st3"/>
		</g>
		<g id="shape34-84" v:mID="34" v:groupContext="shape" transform="translate(28.8465,-63.1622)">
			<title>Sheet.34</title>
			<path d="M0 74.5 L0 91.51" class="st4"/>
		</g>
		<g id="shape35-87" v:mID="35" v:groupContext="shape" transform="translate(40.185,-63.1622)">
			<title>Sheet.35</title>
			<path d="M0 74.5 L0 91.51" class="st4"/>
		</g>
		<g id="shape36-90" v:mID="36" v:groupContext="shape" transform="translate(51.5236,-63.1622)">
			<title>Sheet.36</title>
			<path d="M0 74.5 L0 91.51" class="st4"/>
		</g>
		<g id="shape37-93" v:mID="37" v:groupContext="shape" transform="translate(62.8622,-63.1622)">
			<title>Sheet.37</title>
			<path d="M0 74.5 L0 91.51" class="st4"/>
		</g>
		<g id="shape38-96" v:mID="38" v:groupContext="shape" transform="translate(74.2008,-63.1622)">
			<title>Sheet.38</title>
			<path d="M0 74.5 L0 91.51" class="st4"/>
		</g>
		<g id="shape39-99" v:mID="39" v:groupContext="shape" transform="translate(85.5394,-63.1622)">
			<title>Sheet.39</title>
			<path d="M0 74.5 L0 91.51" class="st4"/>
		</g>
		<g id="shape40-102" v:mID="40" v:groupContext="shape" transform="translate(96.878,-63.1622)">
			<title>Sheet.40</title>
			<path d="M0 74.5 L0 91.51" class="st4"/>
		</g>
		<g id="shape41-105" v:mID="41" v:groupContext="shape" transform="translate(0.5,-65.9969)">
			<title>Sheet.41</title>
			<desc>Vm</desc>
			<v:textBlock v:margins="rect(1,2,1,1)" v:tabSpace="42.5197"/>
			<v:textRect cx="8.50394" cy="85.8394" width="17.01" height="11.3386"/>
			<rect x="0" y="80.1701" width="17.0079" height="11.3386" class="st5"/>
			<text x="3.01" y="88.24" class="st1" v:langID="1033"><v:paragraph v:horizAlign="2"/><v:tabList/>Vm</text>		</g>
		<g id="shape42-108" v:mID="42" v:groupContext="shape" transform="translate(108.217,-65.9969)">
			<title>Sheet.42</title>
			<desc>Vn</desc>
			<v:textBlock v:margins="rect(1,2,1,0)" v:tabSpace="42.5197"/>
			<v:textRect cx="8.50394" cy="85.8394" width="17.01" height="11.3386"/>
			<rect x="0" y="80.1701" width="17.0079" height="11.3386" class="st5"/>
			<text x="5.22" y="88.24" class="st1" v:langID="1033"><v:paragraph v:horizAlign="2"/><v:tabList/>Vn</text>		</g>
		<g id="shape43-111" v:mID="43" v:groupContext="shape" transform="translate(108.217,-3.63465)">
			<title>Sheet.43</title>
			<desc>Vd</desc>
			<v:textBlock v:margins="rect(1,2,1,1)" v:tabSpace="42.5197"/>
			<v:textRect cx="8.50394" cy="85.8394" width="17.01" height="11.3386"/>
			<rect x="0" y="80.1701" width="17.0079" height="11.3386" class="st5"/>
			<text x="5.22" y="88.24" class="st1" v:langID="1033"><v:paragraph v:horizAlign="2"/><v:tabList/>Vd</text>		</g>
		<g id="shape44-114" v:mID="44" v:groupContext="shape" transform="translate(70.0987,142.095) rotate(-138.366)">
			<title>Signal 1</title>
			<path d="M4.24 91.51 L4.6 91.51 L68.27 91.51" class="st6"/>
		</g>
		<g id="shape45-120" v:mID="45" v:groupContext="shape" transform="translate(81.4372,142.095) rotate(-138.366)">
			<title>Signal 1.4</title>
			<path d="M4.24 91.51 L4.6 91.51 L68.27 91.51" class="st6"/>
		</g>
		<g id="shape46-125" v:mID="46" v:groupContext="shape" transform="translate(92.7758,142.095) rotate(-138.366)">
			<title>Signal 1.5</title>
			<path d="M4.24 91.51 L4.6 91.51 L68.27 91.51" class="st6"/>
		</g>
		<g id="shape47-130" v:mID="47" v:groupContext="shape" transform="translate(91.7025,128.606) rotate(-126.87)">
			<title>Signal 1.6</title>
			<path d="M4.24 91.51 L4.6 91.51 L56.69 91.51" class="st6"/>
		</g>
		<g id="shape48-135" v:mID="48" v:groupContext="shape" transform="translate(103.041,128.606) rotate(-126.87)">
			<title>Signal 1.7</title>
			<path d="M4.24 91.51 L4.6 91.51 L56.69 91.51" class="st6"/>
		</g>
		<g id="shape49-140" v:mID="49" v:groupContext="shape" transform="translate(114.38,128.606) rotate(-126.87)">
			<title>Signal 1.8</title>
			<path d="M4.24 91.51 L4.6 91.51 L56.69 91.51" class="st6"/>
		</g>
		<g id="shape50-145" v:mID="50" v:groupContext="shape" transform="translate(125.718,128.606) rotate(-126.87)">
			<title>Signal 1.9</title>
			<path d="M4.24 91.51 L4.6 91.51 L56.69 91.51" class="st6"/>
		</g>
		<g id="shape51-150" v:mID="51" v:groupContext="shape" transform="translate(137.057,128.606) rotate(-126.87)">
			<title>Signal 1.10</title>
			<path d="M4.24 91.51 L4.6 91.51 L56.69 91.51" class="st6"/>
		</g>
	</g>
</svg>
