<?xml version="1.0" encoding="UTF-8" standalone="no"?>
<!DOCTYPE svg PUBLIC "-//W3C//DTD SVG 1.0//EN" "http://www.w3.org/TR/2001/REC-SVG-20010904/DTD/svg10.dtd">
<!-- Generated by Microsoft Visio 11.0, SVG Export, v1.0 operation_doubleword_vuzp8.svg Page-1 -->
<!-- Copyright (c) 2014 ARM Limited or its affiliates. All rights reserved. -->
<svg xmlns="http://www.w3.org/2000/svg" xmlns:v="http://schemas.microsoft.com/visio/2003/SVGExtensions/" width="5.37586in"
		height="0.647977in" viewBox="0 0 387.062 46.6543" xml:space="preserve" color-interpolation-filters="sRGB" class="st8">
	<v:documentProperties v:langID="1033" v:metric="true" v:viewMarkup="false"/>

	<style type="text/css">
	<![CDATA[
		.st1 {fill:#ffffff;stroke:none;stroke-linecap:butt;stroke-width:0.5}
		.st2 {fill:#ffffff;stroke:none;stroke-linecap:butt;stroke-width:7.2}
		.st3 {fill:#000000;font-family:Arial;font-size:0.666664em}
		.st4 {fill:none;stroke:#000000;stroke-linecap:butt;stroke-width:0.8}
		.st5 {stroke:#000000;stroke-linecap:butt;stroke-width:0.8}
		.st6 {fill:#ffffff;stroke:#000000;stroke-linecap:butt;stroke-width:0.75}
		.st7 {fill:#ffffff;stroke:#000000;stroke-linecap:butt;stroke-width:0.5}
		.st8 {fill:none;fill-rule:evenodd;font-size:12;overflow:visible;stroke-linecap:square;stroke-miterlimit:3}
	]]>
	</style>

	<g v:mID="0" v:index="1" v:groupContext="foregroundPage">
		<title>Page-1</title>
		<v:pageProperties v:drawingScale="0.0393701" v:pageScale="0.0393701" v:drawingUnits="24" v:shadowOffsetX="0"
				v:shadowOffsetY="0" v:shadowType="1" v:shadowScale="0"/>
		<g id="group142-1" transform="translate(0.75,-0.8)" v:mID="142" v:groupContext="group">
			<title>Sheet.142</title>
			<g id="shape3-2" v:mID="3" v:groupContext="shape" transform="translate(45.3543,-11.3386)">
				<title>Sheet.3</title>
				<desc>A6</desc>
				<v:textBlock v:margins="rect(0,0,0,0)" v:tabSpace="42.5197"/>
				<v:textRect cx="11.3386" cy="40.985" width="22.68" height="11.3386"/>
				<rect x="0" y="35.3157" width="22.6772" height="11.3386" class="st1"/>
				<rect v:rectContext="textBkgnd" x="6.44595" y="36.185" width="9.78497" height="9.59985" class="st2"/>
				<text x="6.45" y="43.38" class="st3" v:langID="2057"><v:paragraph v:horizAlign="1"/><v:tabList/>A6</text>			</g>
			<g id="shape5-6" v:mID="5" v:groupContext="shape" transform="translate(68.0315,-11.3386)">
				<title>Sheet.5</title>
				<desc>A5</desc>
				<v:textBlock v:margins="rect(0,0,0,0)" v:tabSpace="42.5197"/>
				<v:textRect cx="11.3386" cy="40.985" width="22.68" height="11.3386"/>
				<rect x="0" y="35.3157" width="22.6772" height="11.3386" class="st1"/>
				<rect v:rectContext="textBkgnd" x="6.44595" y="36.185" width="9.78497" height="9.59985" class="st2"/>
				<text x="6.45" y="43.38" class="st3" v:langID="2057"><v:paragraph v:horizAlign="1"/><v:tabList/>A5</text>			</g>
			<g id="shape7-10" v:mID="7" v:groupContext="shape" transform="translate(90.7087,-11.3386)">
				<title>Sheet.7</title>
				<desc>A4</desc>
				<v:textBlock v:margins="rect(0,0,0,0)" v:tabSpace="42.5197"/>
				<v:textRect cx="11.3386" cy="40.985" width="22.68" height="11.3386"/>
				<rect x="0" y="35.3157" width="22.6772" height="11.3386" class="st1"/>
				<rect v:rectContext="textBkgnd" x="6.44595" y="36.185" width="9.78497" height="9.59985" class="st2"/>
				<text x="6.45" y="43.38" class="st3" v:langID="2057"><v:paragraph v:horizAlign="1"/><v:tabList/>A4</text>			</g>
			<g id="shape9-14" v:mID="9" v:groupContext="shape" transform="translate(113.386,-11.3386)">
				<title>Sheet.9</title>
				<desc>A3</desc>
				<v:textBlock v:margins="rect(0,0,0,0)" v:tabSpace="42.5197"/>
				<v:textRect cx="11.3386" cy="40.985" width="22.68" height="11.3386"/>
				<rect x="0" y="35.3157" width="22.6772" height="11.3386" class="st1"/>
				<rect v:rectContext="textBkgnd" x="6.44595" y="36.185" width="9.78497" height="9.59985" class="st2"/>
				<text x="6.45" y="43.38" class="st3" v:langID="2057"><v:paragraph v:horizAlign="1"/><v:tabList/>A3</text>			</g>
			<g id="shape11-18" v:mID="11" v:groupContext="shape" transform="translate(136.063,-11.3386)">
				<title>Sheet.11</title>
				<desc>A2</desc>
				<v:textBlock v:margins="rect(0,0,0,0)" v:tabSpace="42.5197"/>
				<v:textRect cx="11.3386" cy="40.985" width="22.68" height="11.3386"/>
				<rect x="0" y="35.3157" width="22.6772" height="11.3386" class="st1"/>
				<rect v:rectContext="textBkgnd" x="6.44595" y="36.185" width="9.78497" height="9.59985" class="st2"/>
				<text x="6.45" y="43.38" class="st3" v:langID="2057"><v:paragraph v:horizAlign="1"/><v:tabList/>A2</text>			</g>
			<g id="shape13-22" v:mID="13" v:groupContext="shape" transform="translate(158.74,-11.3386)">
				<title>Sheet.13</title>
				<desc>A1</desc>
				<v:textBlock v:margins="rect(0,0,0,0)" v:tabSpace="42.5197"/>
				<v:textRect cx="11.3386" cy="40.985" width="22.68" height="11.3386"/>
				<rect x="0" y="35.3157" width="22.6772" height="11.3386" class="st1"/>
				<rect v:rectContext="textBkgnd" x="6.44595" y="36.185" width="9.78497" height="9.59985" class="st2"/>
				<text x="6.45" y="43.38" class="st3" v:langID="2057"><v:paragraph v:horizAlign="1"/><v:tabList/>A1</text>			</g>
			<g id="shape15-26" v:mID="15" v:groupContext="shape" transform="translate(181.417,-11.3386)">
				<title>Sheet.15</title>
				<desc>A0</desc>
				<v:textBlock v:margins="rect(0,0,0,0)" v:tabSpace="42.5197"/>
				<v:textRect cx="11.3386" cy="40.985" width="22.68" height="11.3386"/>
				<rect x="0" y="35.3157" width="22.6772" height="11.3386" class="st1"/>
				<rect v:rectContext="textBkgnd" x="6.44595" y="36.185" width="9.78497" height="9.59985" class="st2"/>
				<text x="6.45" y="43.38" class="st3" v:langID="2057"><v:paragraph v:horizAlign="1"/><v:tabList/>A0</text>			</g>
			<g id="shape17-30" v:mID="17" v:groupContext="shape" transform="translate(204.094,-11.3386)">
				<title>Sheet.17</title>
				<desc>B6</desc>
				<v:textBlock v:margins="rect(0,0,0,0)" v:tabSpace="42.5197"/>
				<v:textRect cx="11.3386" cy="40.985" width="22.68" height="11.3386"/>
				<rect x="0" y="35.3157" width="22.6772" height="11.3386" class="st1"/>
				<rect v:rectContext="textBkgnd" x="6.44595" y="36.185" width="9.78497" height="9.59985" class="st2"/>
				<text x="6.45" y="43.38" class="st3" v:langID="2057"><v:paragraph v:horizAlign="1"/><v:tabList/>B6</text>			</g>
			<g id="shape19-34" v:mID="19" v:groupContext="shape" transform="translate(226.772,-11.3386)">
				<title>Sheet.19</title>
				<desc>B4</desc>
				<v:textBlock v:margins="rect(0,0,0,0)" v:tabSpace="42.5197"/>
				<v:textRect cx="11.3386" cy="40.985" width="22.68" height="11.3386"/>
				<rect x="0" y="35.3157" width="22.6772" height="11.3386" class="st1"/>
				<rect v:rectContext="textBkgnd" x="6.44595" y="36.185" width="9.78497" height="9.59985" class="st2"/>
				<text x="6.45" y="43.38" class="st3" v:langID="2057"><v:paragraph v:horizAlign="1"/><v:tabList/>B4</text>			</g>
			<g id="shape21-38" v:mID="21" v:groupContext="shape" transform="translate(249.449,-11.3386)">
				<title>Sheet.21</title>
				<desc>B2</desc>
				<v:textBlock v:margins="rect(0,0,0,0)" v:tabSpace="42.5197"/>
				<v:textRect cx="11.3386" cy="40.985" width="22.68" height="11.3386"/>
				<rect x="0" y="35.3157" width="22.6772" height="11.3386" class="st1"/>
				<rect v:rectContext="textBkgnd" x="6.44595" y="36.185" width="9.78497" height="9.59985" class="st2"/>
				<text x="6.45" y="43.38" class="st3" v:langID="2057"><v:paragraph v:horizAlign="1"/><v:tabList/>B2</text>			</g>
			<g id="shape23-42" v:mID="23" v:groupContext="shape" transform="translate(272.126,-11.3386)">
				<title>Sheet.23</title>
				<desc>B0</desc>
				<v:textBlock v:margins="rect(0,0,0,0)" v:tabSpace="42.5197"/>
				<v:textRect cx="11.3386" cy="40.985" width="22.68" height="11.3386"/>
				<rect x="0" y="35.3157" width="22.6772" height="11.3386" class="st1"/>
				<rect v:rectContext="textBkgnd" x="6.44595" y="36.185" width="9.78497" height="9.59985" class="st2"/>
				<text x="6.45" y="43.38" class="st3" v:langID="2057"><v:paragraph v:horizAlign="1"/><v:tabList/>B0</text>			</g>
			<g id="shape25-46" v:mID="25" v:groupContext="shape" transform="translate(294.803,-11.3386)">
				<title>Sheet.25</title>
				<desc>A6</desc>
				<v:textBlock v:margins="rect(0,0,0,0)" v:tabSpace="42.5197"/>
				<v:textRect cx="11.3386" cy="40.985" width="22.68" height="11.3386"/>
				<rect x="0" y="35.3157" width="22.6772" height="11.3386" class="st1"/>
				<rect v:rectContext="textBkgnd" x="6.44595" y="36.185" width="9.78497" height="9.59985" class="st2"/>
				<text x="6.45" y="43.38" class="st3" v:langID="2057"><v:paragraph v:horizAlign="1"/><v:tabList/>A6</text>			</g>
			<g id="shape27-50" v:mID="27" v:groupContext="shape" transform="translate(317.48,-11.3386)">
				<title>Sheet.27</title>
				<desc>A4</desc>
				<v:textBlock v:margins="rect(0,0,0,0)" v:tabSpace="42.5197"/>
				<v:textRect cx="11.3386" cy="40.985" width="22.68" height="11.3386"/>
				<rect x="0" y="35.3157" width="22.6772" height="11.3386" class="st1"/>
				<rect v:rectContext="textBkgnd" x="6.44595" y="36.185" width="9.78497" height="9.59985" class="st2"/>
				<text x="6.45" y="43.38" class="st3" v:langID="2057"><v:paragraph v:horizAlign="1"/><v:tabList/>A4</text>			</g>
			<g id="shape29-54" v:mID="29" v:groupContext="shape" transform="translate(340.157,-11.3386)">
				<title>Sheet.29</title>
				<desc>A2</desc>
				<v:textBlock v:margins="rect(0,0,0,0)" v:tabSpace="42.5197"/>
				<v:textRect cx="11.3386" cy="40.985" width="22.68" height="11.3386"/>
				<rect x="0" y="35.3157" width="22.6772" height="11.3386" class="st1"/>
				<rect v:rectContext="textBkgnd" x="6.44595" y="36.185" width="9.78497" height="9.59985" class="st2"/>
				<text x="6.45" y="43.38" class="st3" v:langID="2057"><v:paragraph v:horizAlign="1"/><v:tabList/>A2</text>			</g>
			<g id="shape31-58" v:mID="31" v:groupContext="shape" transform="translate(362.835,-11.3386)">
				<title>Sheet.31</title>
				<desc>A0</desc>
				<v:textBlock v:margins="rect(0,0,0,0)" v:tabSpace="42.5197"/>
				<v:textRect cx="11.3386" cy="40.985" width="22.68" height="11.3386"/>
				<rect x="0" y="35.3157" width="22.6772" height="11.3386" class="st1"/>
				<rect v:rectContext="textBkgnd" x="6.44595" y="36.185" width="9.78497" height="9.59985" class="st2"/>
				<text x="6.45" y="43.38" class="st3" v:langID="2057"><v:paragraph v:horizAlign="1"/><v:tabList/>A0</text>			</g>
			<g id="shape65-62" v:mID="65" v:groupContext="shape" transform="translate(22.6772,-11.3386)">
				<title>Sheet.65</title>
				<desc>A7</desc>
				<v:textBlock v:margins="rect(0,0,0,0)" v:tabSpace="42.5197"/>
				<v:textRect cx="11.3386" cy="40.985" width="22.68" height="11.3386"/>
				<rect x="0" y="35.3157" width="22.6772" height="11.3386" class="st1"/>
				<rect v:rectContext="textBkgnd" x="6.44595" y="36.185" width="9.78497" height="9.59985" class="st2"/>
				<text x="6.45" y="43.38" class="st3" v:langID="2057"><v:paragraph v:horizAlign="1"/><v:tabList/>A7</text>			</g>
			<g id="shape67-66" v:mID="67" v:groupContext="shape" transform="translate(22.6772,-11.3386)">
				<title>Block</title>
				<rect x="0" y="35.3157" width="362.835" height="11.3386" class="st4"/>
			</g>
			<g id="shape68-68" v:mID="68" v:groupContext="shape" transform="translate(45.3543,-11.3386)">
				<title>Sheet.68</title>
				<path d="M0 35.32 L0 46.65" class="st5"/>
			</g>
			<g id="shape70-71" v:mID="70" v:groupContext="shape" transform="translate(68.0315,-11.3386)">
				<title>Sheet.70</title>
				<path d="M0 35.32 L0 46.65" class="st5"/>
			</g>
			<g id="shape72-74" v:mID="72" v:groupContext="shape" transform="translate(90.7087,-11.3386)">
				<title>Sheet.72</title>
				<path d="M0 35.32 L0 46.65" class="st5"/>
			</g>
			<g id="shape74-77" v:mID="74" v:groupContext="shape" transform="translate(113.386,-11.3386)">
				<title>Sheet.74</title>
				<path d="M0 35.32 L0 46.65" class="st5"/>
			</g>
			<g id="shape76-80" v:mID="76" v:groupContext="shape" transform="translate(136.063,-11.3386)">
				<title>Sheet.76</title>
				<path d="M0 35.32 L0 46.65" class="st5"/>
			</g>
			<g id="shape78-83" v:mID="78" v:groupContext="shape" transform="translate(158.74,-11.3386)">
				<title>Sheet.78</title>
				<path d="M0 35.32 L0 46.65" class="st5"/>
			</g>
			<g id="shape80-86" v:mID="80" v:groupContext="shape" transform="translate(181.417,-11.3386)">
				<title>Sheet.80</title>
				<path d="M0 35.32 L0 46.65" class="st5"/>
			</g>
			<g id="shape82-89" v:mID="82" v:groupContext="shape" transform="translate(204.094,-11.3386)">
				<title>Sheet.82</title>
				<path d="M0 35.32 L0 46.65" class="st5"/>
			</g>
			<g id="shape84-92" v:mID="84" v:groupContext="shape" transform="translate(226.772,-11.3386)">
				<title>Sheet.84</title>
				<path d="M0 35.32 L0 46.65" class="st5"/>
			</g>
			<g id="shape86-95" v:mID="86" v:groupContext="shape" transform="translate(249.449,-11.3386)">
				<title>Sheet.86</title>
				<path d="M0 35.32 L0 46.65" class="st5"/>
			</g>
			<g id="shape88-98" v:mID="88" v:groupContext="shape" transform="translate(272.126,-11.3386)">
				<title>Sheet.88</title>
				<path d="M0 35.32 L0 46.65" class="st5"/>
			</g>
			<g id="shape90-101" v:mID="90" v:groupContext="shape" transform="translate(294.803,-11.3386)">
				<title>Sheet.90</title>
				<path d="M0 35.32 L0 46.65" class="st5"/>
			</g>
			<g id="shape92-104" v:mID="92" v:groupContext="shape" transform="translate(317.48,-11.3386)">
				<title>Sheet.92</title>
				<path d="M0 35.32 L0 46.65" class="st5"/>
			</g>
			<g id="shape94-107" v:mID="94" v:groupContext="shape" transform="translate(340.157,-11.3386)">
				<title>Sheet.94</title>
				<path d="M0 35.32 L0 46.65" class="st5"/>
			</g>
			<g id="shape96-110" v:mID="96" v:groupContext="shape" transform="translate(362.835,-11.3386)">
				<title>Sheet.96</title>
				<path d="M0 35.32 L0 46.65" class="st5"/>
			</g>
			<g id="shape98-113" v:mID="98" v:groupContext="shape" transform="translate(22.6772,-22.6772)">
				<title>Sheet.98</title>
				<path d="M0 35.32 L0 46.65" class="st5"/>
			</g>
			<g id="shape99-116" v:mID="99" v:groupContext="shape" transform="translate(385.512,-22.6772)">
				<title>Sheet.99</title>
				<path d="M0 35.32 L0 46.65" class="st5"/>
			</g>
			<g id="shape1-119" v:mID="1" v:groupContext="shape" transform="translate(45.3543,7.10543E-015)">
				<title>Sheet.1</title>
				<desc>B6</desc>
				<v:textBlock v:margins="rect(0,0,0,0)" v:tabSpace="42.5197"/>
				<v:textRect cx="11.3386" cy="40.985" width="22.68" height="11.3386"/>
				<rect x="0" y="35.3157" width="22.6772" height="11.3386" class="st1"/>
				<rect v:rectContext="textBkgnd" x="6.44595" y="36.185" width="9.78497" height="9.59985" class="st2"/>
				<text x="6.45" y="43.38" class="st3" v:langID="2057"><v:paragraph v:horizAlign="1"/><v:tabList/>B6</text>			</g>
			<g id="shape2-123" v:mID="2" v:groupContext="shape" transform="translate(68.0315,7.10543E-015)">
				<title>Sheet.2</title>
				<desc>B5</desc>
				<v:textBlock v:margins="rect(0,0,0,0)" v:tabSpace="42.5197"/>
				<v:textRect cx="11.3386" cy="40.985" width="22.68" height="11.3386"/>
				<rect x="0" y="35.3157" width="22.6772" height="11.3386" class="st1"/>
				<rect v:rectContext="textBkgnd" x="6.44595" y="36.185" width="9.78497" height="9.59985" class="st2"/>
				<text x="6.45" y="43.38" class="st3" v:langID="2057"><v:paragraph v:horizAlign="1"/><v:tabList/>B5</text>			</g>
			<g id="shape4-127" v:mID="4" v:groupContext="shape" transform="translate(90.7087,7.10543E-015)">
				<title>Sheet.4</title>
				<desc>B4</desc>
				<v:textBlock v:margins="rect(0,0,0,0)" v:tabSpace="42.5197"/>
				<v:textRect cx="11.3386" cy="40.985" width="22.68" height="11.3386"/>
				<rect x="0" y="35.3157" width="22.6772" height="11.3386" class="st1"/>
				<rect v:rectContext="textBkgnd" x="6.44595" y="36.185" width="9.78497" height="9.59985" class="st2"/>
				<text x="6.45" y="43.38" class="st3" v:langID="2057"><v:paragraph v:horizAlign="1"/><v:tabList/>B4</text>			</g>
			<g id="shape6-131" v:mID="6" v:groupContext="shape" transform="translate(113.386,7.10543E-015)">
				<title>Sheet.6</title>
				<desc>B3</desc>
				<v:textBlock v:margins="rect(0,0,0,0)" v:tabSpace="42.5197"/>
				<v:textRect cx="11.3386" cy="40.985" width="22.68" height="11.3386"/>
				<rect x="0" y="35.3157" width="22.6772" height="11.3386" class="st1"/>
				<rect v:rectContext="textBkgnd" x="6.44595" y="36.185" width="9.78497" height="9.59985" class="st2"/>
				<text x="6.45" y="43.38" class="st3" v:langID="2057"><v:paragraph v:horizAlign="1"/><v:tabList/>B3</text>			</g>
			<g id="shape8-135" v:mID="8" v:groupContext="shape" transform="translate(136.063,7.10543E-015)">
				<title>Sheet.8</title>
				<desc>B2</desc>
				<v:textBlock v:margins="rect(0,0,0,0)" v:tabSpace="42.5197"/>
				<v:textRect cx="11.3386" cy="40.985" width="22.68" height="11.3386"/>
				<rect x="0" y="35.3157" width="22.6772" height="11.3386" class="st1"/>
				<rect v:rectContext="textBkgnd" x="6.44595" y="36.185" width="9.78497" height="9.59985" class="st2"/>
				<text x="6.45" y="43.38" class="st3" v:langID="2057"><v:paragraph v:horizAlign="1"/><v:tabList/>B2</text>			</g>
			<g id="shape10-139" v:mID="10" v:groupContext="shape" transform="translate(158.74,7.10543E-015)">
				<title>Sheet.10</title>
				<desc>B1</desc>
				<v:textBlock v:margins="rect(0,0,0,0)" v:tabSpace="42.5197"/>
				<v:textRect cx="11.3386" cy="40.985" width="22.68" height="11.3386"/>
				<rect x="0" y="35.3157" width="22.6772" height="11.3386" class="st1"/>
				<rect v:rectContext="textBkgnd" x="6.44595" y="36.185" width="9.78497" height="9.59985" class="st2"/>
				<text x="6.45" y="43.38" class="st3" v:langID="2057"><v:paragraph v:horizAlign="1"/><v:tabList/>B1</text>			</g>
			<g id="shape12-143" v:mID="12" v:groupContext="shape" transform="translate(181.417,7.10543E-015)">
				<title>Sheet.12</title>
				<desc>B0</desc>
				<v:textBlock v:margins="rect(0,0,0,0)" v:tabSpace="42.5197"/>
				<v:textRect cx="11.3386" cy="40.985" width="22.68" height="11.3386"/>
				<rect x="0" y="35.3157" width="22.6772" height="11.3386" class="st1"/>
				<rect v:rectContext="textBkgnd" x="6.44595" y="36.185" width="9.78497" height="9.59985" class="st2"/>
				<text x="6.45" y="43.38" class="st3" v:langID="2057"><v:paragraph v:horizAlign="1"/><v:tabList/>B0</text>			</g>
			<g id="shape14-147" v:mID="14" v:groupContext="shape" transform="translate(204.094,7.10543E-015)">
				<title>Sheet.14</title>
				<desc>B7</desc>
				<v:textBlock v:margins="rect(0,0,0,0)" v:tabSpace="42.5197"/>
				<v:textRect cx="11.3386" cy="40.985" width="22.68" height="11.3386"/>
				<rect x="0" y="35.3157" width="22.6772" height="11.3386" class="st1"/>
				<rect v:rectContext="textBkgnd" x="6.44595" y="36.185" width="9.78497" height="9.59985" class="st2"/>
				<text x="6.45" y="43.38" class="st3" v:langID="2057"><v:paragraph v:horizAlign="1"/><v:tabList/>B7</text>			</g>
			<g id="shape16-151" v:mID="16" v:groupContext="shape" transform="translate(226.772,-5.68434E-014)">
				<title>Sheet.16</title>
				<desc>B5</desc>
				<v:textBlock v:margins="rect(0,0,0,0)" v:tabSpace="42.5197"/>
				<v:textRect cx="11.3386" cy="40.985" width="22.68" height="11.3386"/>
				<rect x="0" y="35.3157" width="22.6772" height="11.3386" class="st1"/>
				<rect v:rectContext="textBkgnd" x="6.44595" y="36.185" width="9.78497" height="9.59985" class="st2"/>
				<text x="6.45" y="43.38" class="st3" v:langID="2057"><v:paragraph v:horizAlign="1"/><v:tabList/>B5</text>			</g>
			<g id="shape18-155" v:mID="18" v:groupContext="shape" transform="translate(249.449,-1.20792E-013)">
				<title>Sheet.18</title>
				<desc>B3</desc>
				<v:textBlock v:margins="rect(0,0,0,0)" v:tabSpace="42.5197"/>
				<v:textRect cx="11.3386" cy="40.985" width="22.68" height="11.3386"/>
				<rect x="0" y="35.3157" width="22.6772" height="11.3386" class="st1"/>
				<rect v:rectContext="textBkgnd" x="6.44595" y="36.185" width="9.78497" height="9.59985" class="st2"/>
				<text x="6.45" y="43.38" class="st3" v:langID="2057"><v:paragraph v:horizAlign="1"/><v:tabList/>B3</text>			</g>
			<g id="shape20-159" v:mID="20" v:groupContext="shape" transform="translate(272.126,-1.20792E-013)">
				<title>Sheet.20</title>
				<desc>B1</desc>
				<v:textBlock v:margins="rect(0,0,0,0)" v:tabSpace="42.5197"/>
				<v:textRect cx="11.3386" cy="40.985" width="22.68" height="11.3386"/>
				<rect x="0" y="35.3157" width="22.6772" height="11.3386" class="st1"/>
				<rect v:rectContext="textBkgnd" x="6.44595" y="36.185" width="9.78497" height="9.59985" class="st2"/>
				<text x="6.45" y="43.38" class="st3" v:langID="2057"><v:paragraph v:horizAlign="1"/><v:tabList/>B1</text>			</g>
			<g id="shape22-163" v:mID="22" v:groupContext="shape" transform="translate(294.803,-5.68434E-014)">
				<title>Sheet.22</title>
				<desc>A7</desc>
				<v:textBlock v:margins="rect(0,0,0,0)" v:tabSpace="42.5197"/>
				<v:textRect cx="11.3386" cy="40.985" width="22.68" height="11.3386"/>
				<rect x="0" y="35.3157" width="22.6772" height="11.3386" class="st1"/>
				<rect v:rectContext="textBkgnd" x="6.44595" y="36.185" width="9.78497" height="9.59985" class="st2"/>
				<text x="6.45" y="43.38" class="st3" v:langID="2057"><v:paragraph v:horizAlign="1"/><v:tabList/>A7</text>			</g>
			<g id="shape24-167" v:mID="24" v:groupContext="shape" transform="translate(317.48,7.10543E-015)">
				<title>Sheet.24</title>
				<desc>A5</desc>
				<v:textBlock v:margins="rect(0,0,0,0)" v:tabSpace="42.5197"/>
				<v:textRect cx="11.3386" cy="40.985" width="22.68" height="11.3386"/>
				<rect x="0" y="35.3157" width="22.6772" height="11.3386" class="st1"/>
				<rect v:rectContext="textBkgnd" x="6.44595" y="36.185" width="9.78497" height="9.59985" class="st2"/>
				<text x="6.45" y="43.38" class="st3" v:langID="2057"><v:paragraph v:horizAlign="1"/><v:tabList/>A5</text>			</g>
			<g id="shape26-171" v:mID="26" v:groupContext="shape" transform="translate(340.157,-1.20792E-013)">
				<title>Sheet.26</title>
				<desc>A3</desc>
				<v:textBlock v:margins="rect(0,0,0,0)" v:tabSpace="42.5197"/>
				<v:textRect cx="11.3386" cy="40.985" width="22.68" height="11.3386"/>
				<rect x="0" y="35.3157" width="22.6772" height="11.3386" class="st1"/>
				<rect v:rectContext="textBkgnd" x="6.44595" y="36.185" width="9.78497" height="9.59985" class="st2"/>
				<text x="6.45" y="43.38" class="st3" v:langID="2057"><v:paragraph v:horizAlign="1"/><v:tabList/>A3</text>			</g>
			<g id="shape28-175" v:mID="28" v:groupContext="shape" transform="translate(362.835,-5.68434E-014)">
				<title>Sheet.28</title>
				<desc>A1</desc>
				<v:textBlock v:margins="rect(0,0,0,0)" v:tabSpace="42.5197"/>
				<v:textRect cx="11.3386" cy="40.985" width="22.68" height="11.3386"/>
				<rect x="0" y="35.3157" width="22.6772" height="11.3386" class="st1"/>
				<rect v:rectContext="textBkgnd" x="6.44595" y="36.185" width="9.78497" height="9.59985" class="st2"/>
				<text x="6.45" y="43.38" class="st3" v:langID="2057"><v:paragraph v:horizAlign="1"/><v:tabList/>A1</text>			</g>
			<g id="shape114-179" v:mID="114" v:groupContext="shape" transform="translate(22.6772,7.10543E-015)">
				<title>Sheet.114</title>
				<desc>B7</desc>
				<v:textBlock v:margins="rect(0,0,0,0)" v:tabSpace="42.5197"/>
				<v:textRect cx="11.3386" cy="40.985" width="22.68" height="11.3386"/>
				<rect x="0" y="35.3157" width="22.6772" height="11.3386" class="st1"/>
				<rect v:rectContext="textBkgnd" x="6.44595" y="36.185" width="9.78497" height="9.59985" class="st2"/>
				<text x="6.45" y="43.38" class="st3" v:langID="2057"><v:paragraph v:horizAlign="1"/><v:tabList/>B7</text>			</g>
			<g id="shape115-183" v:mID="115" v:groupContext="shape" transform="translate(22.6772,7.10543E-015)">
				<title>Block.115</title>
				<rect x="0" y="35.3157" width="362.835" height="11.3386" class="st4"/>
			</g>
			<g id="shape116-185" v:mID="116" v:groupContext="shape" transform="translate(45.3543,7.10543E-015)">
				<title>Sheet.116</title>
				<path d="M0 35.32 L0 46.65" class="st5"/>
			</g>
			<g id="shape117-188" v:mID="117" v:groupContext="shape" transform="translate(68.0315,7.10543E-015)">
				<title>Sheet.117</title>
				<path d="M0 35.32 L0 46.65" class="st5"/>
			</g>
			<g id="shape118-191" v:mID="118" v:groupContext="shape" transform="translate(90.7087,7.10543E-015)">
				<title>Sheet.118</title>
				<path d="M0 35.32 L0 46.65" class="st5"/>
			</g>
			<g id="shape119-194" v:mID="119" v:groupContext="shape" transform="translate(113.386,7.10543E-015)">
				<title>Sheet.119</title>
				<path d="M0 35.32 L0 46.65" class="st5"/>
			</g>
			<g id="shape120-197" v:mID="120" v:groupContext="shape" transform="translate(136.063,7.10543E-015)">
				<title>Sheet.120</title>
				<path d="M0 35.32 L0 46.65" class="st5"/>
			</g>
			<g id="shape121-200" v:mID="121" v:groupContext="shape" transform="translate(158.74,7.10543E-015)">
				<title>Sheet.121</title>
				<path d="M0 35.32 L0 46.65" class="st5"/>
			</g>
			<g id="shape122-203" v:mID="122" v:groupContext="shape" transform="translate(181.417,-5.68434E-014)">
				<title>Sheet.122</title>
				<path d="M0 35.32 L0 46.65" class="st5"/>
			</g>
			<g id="shape123-206" v:mID="123" v:groupContext="shape" transform="translate(204.094,7.10543E-015)">
				<title>Sheet.123</title>
				<path d="M0 35.32 L0 46.65" class="st5"/>
			</g>
			<g id="shape124-209" v:mID="124" v:groupContext="shape" transform="translate(226.772,7.10543E-015)">
				<title>Sheet.124</title>
				<path d="M0 35.32 L0 46.65" class="st5"/>
			</g>
			<g id="shape125-212" v:mID="125" v:groupContext="shape" transform="translate(249.449,7.10543E-015)">
				<title>Sheet.125</title>
				<path d="M0 35.32 L0 46.65" class="st5"/>
			</g>
			<g id="shape126-215" v:mID="126" v:groupContext="shape" transform="translate(272.126,-5.68434E-014)">
				<title>Sheet.126</title>
				<path d="M0 35.32 L0 46.65" class="st5"/>
			</g>
			<g id="shape127-218" v:mID="127" v:groupContext="shape" transform="translate(294.803,7.10543E-015)">
				<title>Sheet.127</title>
				<path d="M0 35.32 L0 46.65" class="st5"/>
			</g>
			<g id="shape128-221" v:mID="128" v:groupContext="shape" transform="translate(317.48,7.10543E-015)">
				<title>Sheet.128</title>
				<path d="M0 35.32 L0 46.65" class="st5"/>
			</g>
			<g id="shape129-224" v:mID="129" v:groupContext="shape" transform="translate(340.157,7.10543E-015)">
				<title>Sheet.129</title>
				<path d="M0 35.32 L0 46.65" class="st5"/>
			</g>
			<g id="shape130-227" v:mID="130" v:groupContext="shape" transform="translate(362.835,7.10543E-015)">
				<title>Sheet.130</title>
				<path d="M0 35.32 L0 46.65" class="st5"/>
			</g>
			<g id="shape131-230" v:mID="131" v:groupContext="shape" transform="translate(22.6772,-11.3386)">
				<title>Sheet.131</title>
				<path d="M0 35.32 L0 46.65" class="st5"/>
			</g>
			<g id="shape132-233" v:mID="132" v:groupContext="shape" transform="translate(385.512,-11.3386)">
				<title>Sheet.132</title>
				<path d="M0 35.32 L0 46.65" class="st5"/>
			</g>
			<g id="shape133-236" v:mID="133" v:groupContext="shape" transform="translate(-1.39888E-014,-11.3386)">
				<title>Sheet.133</title>
				<desc>Dd</desc>
				<v:textBlock v:margins="rect(0,0,0,0)" v:tabSpace="42.5197"/>
				<v:textRect cx="11.3386" cy="40.985" width="22.68" height="11.3386"/>
				<rect x="0" y="35.3157" width="22.6772" height="11.3386" class="st6"/>
				<rect v:rectContext="textBkgnd" x="6.22513" y="36.185" width="10.2266" height="9.59985" class="st2"/>
				<text x="6.23" y="43.38" class="st3" v:langID="2057"><v:paragraph v:horizAlign="1"/><v:tabList/>Dd</text>			</g>
			<g id="shape134-240" v:mID="134" v:groupContext="shape">
				<title>Sheet.134</title>
				<desc>Dm</desc>
				<v:textBlock v:margins="rect(0,0,0,0)" v:tabSpace="42.5197"/>
				<v:textRect cx="11.3386" cy="40.985" width="22.68" height="11.3386"/>
				<rect x="0" y="35.3157" width="22.6772" height="11.3386" class="st6"/>
				<rect v:rectContext="textBkgnd" x="5.11771" y="36.185" width="12.4415" height="9.59985" class="st2"/>
				<text x="5.12" y="43.38" class="st3" v:langID="2057"><v:paragraph v:horizAlign="1"/><v:tabList/>Dm</text>			</g>
			<g id="shape135-244" v:mID="135" v:groupContext="shape" transform="translate(22.6772,-22.6772)">
				<title>Block.135</title>
				<desc>Register state before operation</desc>
				<v:custProps>
					<v:cp v:nameU="color1" v:lbl="Color" v:prompt="Set the fill color" v:type="1"
							v:format="White;Red;Green;Blue;Yellow;LightBlue;Gray" v:sortKey="" v:invis="false" v:ask="false"
							v:langID="2057" v:cal="0" v:val="VT4(White)"/>
				</v:custProps>
				<v:userDefs>
					<v:ud v:nameU="colorNames" v:prompt="" v:val="VT4(White;Red;Green;Blue;Yellow;LightBlue;Gray)"/>
					<v:ud v:nameU="colorValues" v:prompt=""
							v:val="VT4(RGB(255,255,255);RGB(255,102,102);RGB(153,255,153);RGB(153,204,255);RGB(255,204,51);RGB(204,255,255);RGB(192,192,192))"/>
					<v:ud v:nameU="color1" v:prompt="" v:val="VT4(RGB(255,255,255))"/>
				</v:userDefs>
				<v:textBlock v:margins="rect(2,2,2,2)" v:tabSpace="42.5197"/>
				<v:textRect cx="90.7087" cy="40.985" width="181.42" height="11.3386"/>
				<rect x="0" y="35.3157" width="181.417" height="11.3386" class="st7"/>
				<text x="35.79" y="43.38" class="st3" v:langID="2057"><v:paragraph v:horizAlign="1"/><v:tabList/>Register state before operation</text>			</g>
			<g id="shape136-247" v:mID="136" v:groupContext="shape" transform="translate(204.094,-22.6772)">
				<title>Block.136</title>
				<desc>Register state after operation</desc>
				<v:custProps>
					<v:cp v:nameU="color1" v:lbl="Color" v:prompt="Set the fill color" v:type="1"
							v:format="White;Red;Green;Blue;Yellow;LightBlue;Gray" v:sortKey="" v:invis="false" v:ask="false"
							v:langID="2057" v:cal="0" v:val="VT4(White)"/>
				</v:custProps>
				<v:userDefs>
					<v:ud v:nameU="colorNames" v:prompt="" v:val="VT4(White;Red;Green;Blue;Yellow;LightBlue;Gray)"/>
					<v:ud v:nameU="colorValues" v:prompt=""
							v:val="VT4(RGB(255,255,255);RGB(255,102,102);RGB(153,255,153);RGB(153,204,255);RGB(255,204,51);RGB(204,255,255);RGB(192,192,192))"/>
					<v:ud v:nameU="color1" v:prompt="" v:val="VT4(RGB(255,255,255))"/>
				</v:userDefs>
				<v:textBlock v:margins="rect(2,2,2,2)" v:tabSpace="42.5197"/>
				<v:textRect cx="90.7087" cy="40.985" width="181.42" height="11.3386"/>
				<rect x="0" y="35.3157" width="181.417" height="11.3386" class="st7"/>
				<text x="39.13" y="43.38" class="st3" v:langID="2057"><v:paragraph v:horizAlign="1"/><v:tabList/>Register state after operation</text>			</g>
			<g id="shape137-250" v:mID="137" v:groupContext="shape" transform="translate(22.6772,-34.0157)">
				<title>Block.137</title>
				<desc>VUZP.8, doubleword</desc>
				<v:custProps>
					<v:cp v:nameU="color1" v:lbl="Color" v:prompt="Set the fill color" v:type="1"
							v:format="White;Red;Green;Blue;Yellow;LightBlue;Gray" v:sortKey="" v:invis="false" v:ask="false"
							v:langID="2057" v:cal="0" v:val="VT4(White)"/>
				</v:custProps>
				<v:userDefs>
					<v:ud v:nameU="colorNames" v:prompt="" v:val="VT4(White;Red;Green;Blue;Yellow;LightBlue;Gray)"/>
					<v:ud v:nameU="colorValues" v:prompt=""
							v:val="VT4(RGB(255,255,255);RGB(255,102,102);RGB(153,255,153);RGB(153,204,255);RGB(255,204,51);RGB(204,255,255);RGB(192,192,192))"/>
					<v:ud v:nameU="color1" v:prompt="" v:val="VT4(RGB(255,255,255))"/>
				</v:userDefs>
				<v:textBlock v:margins="rect(2,2,2,2)" v:tabSpace="42.5197"/>
				<v:textRect cx="90.7087" cy="40.985" width="181.42" height="11.3386"/>
				<rect x="0" y="35.3157" width="181.417" height="11.3386" class="st1"/>
				<text x="53.8" y="43.38" class="st3" v:langID="2057"><v:paragraph v:horizAlign="1"/><v:tabList/>VUZP.8, doubleword</text>			</g>
			<g id="shape138-253" v:mID="138" v:groupContext="shape" transform="translate(226.772,-11.3386)">
				<title>Sheet.138</title>
				<path d="M0 35.32 L0 46.65" class="st5"/>
			</g>
			<g id="shape139-256" v:mID="139" v:groupContext="shape" transform="translate(204.094,-11.3386)">
				<title>Sheet.139</title>
				<path d="M0 35.32 L0 46.65" class="st5"/>
			</g>
			<g id="shape140-259" v:mID="140" v:groupContext="shape" transform="translate(249.449,-11.3386)">
				<title>Sheet.140</title>
				<path d="M0 35.32 L0 46.65" class="st5"/>
			</g>
			<g id="shape141-262" v:mID="141" v:groupContext="shape" transform="translate(317.48,-11.3386)">
				<title>Sheet.141</title>
				<path d="M0 35.32 L0 46.65" class="st5"/>
			</g>
		</g>
	</g>
</svg>
