<?xml version="1.0" encoding="UTF-8" standalone="no"?>
<!DOCTYPE svg PUBLIC "-//W3C//DTD SVG 1.0//EN" "http://www.w3.org/TR/2001/REC-SVG-20010904/DTD/svg10.dtd">
<!-- Generated by Microsoft Visio 11.0, SVG Export, v1.0 vpadd_operation_for_data_type_i16_integer.svg Page-1 -->
<!-- Copyright (c) 2014 ARM Limited or its affiliates. All rights reserved. -->
<svg xmlns="http://www.w3.org/2000/svg" 
     xmlns:xlink="http://www.w3.org/1999/xlink" 
     xmlns:v="http://schemas.microsoft.com/visio/2003/SVGExtensions/" width="3.71884in"
		height="1.3608in" viewBox="0 0 267.757 97.978" xml:space="preserve" color-interpolation-filters="sRGB" class="st9">
	<v:documentProperties v:langID="1033" v:metric="true" v:viewMarkup="false"/>

	<style type="text/css">
	<![CDATA[
		.st1 {fill:none;stroke:none;stroke-linecap:butt;stroke-width:0.5}
		.st2 {fill:#000000;font-family:Arial;font-size:0.666664em}
		.st3 {fill:#ffffff;stroke:none;stroke-linecap:round;stroke-linejoin:round;stroke-width:0.0169691}
		.st4 {stroke:#000000;stroke-linecap:butt;stroke-width:0.5}
		.st5 {fill:#ffffff;visibility:hidden}
		.st6 {stroke:#000000;stroke-linecap:butt;stroke-width:0.8}
		.st7 {marker-end:url(#mrkr4-32);stroke:#000000;stroke-linecap:butt;stroke-width:0.5}
		.st8 {fill:#000000;fill-opacity:1;stroke:#000000;stroke-opacity:1;stroke-width:0.21739130434783}
		.st9 {fill:none;fill-rule:evenodd;font-size:12;overflow:visible;stroke-linecap:square;stroke-miterlimit:3}
	]]>
	</style>

	<defs id="Markers">
		<g id="lend4">
			<path d="M 2 1 L -0 0 L 2 -1 L 2 1 " style="stroke:none"/>
		</g>
		<marker id="mrkr4-32" class="st8" v:arrowType="4" v:arrowSize="1" v:setback="9.2" refX="-9.2" orient="auto"
				markerUnits="strokeWidth">
			<use xlink:href="#lend4" transform="scale(-4.6,-4.6) "/>
		</marker>
	</defs>
	<g v:mID="0" v:index="1" v:groupContext="foregroundPage">
		<title>Page-1</title>
		<v:pageProperties v:drawingScale="0.0393701" v:pageScale="0.0393701" v:drawingUnits="24" v:shadowOffsetX="0"
				v:shadowOffsetY="0" v:shadowType="1" v:shadowScale="0"/>
		<g id="shape8-1" v:mID="8" v:groupContext="shape" transform="translate(0.5,-85.8394)">
			<title>Sheet.8</title>
			<desc>Dm</desc>
			<v:textBlock v:margins="rect(1,2,1,0)" v:tabSpace="42.5197"/>
			<v:textRect cx="8.50394" cy="92.3087" width="17.01" height="11.3386"/>
			<rect x="0" y="86.6394" width="17.0079" height="11.3386" class="st1"/>
			<text x="2.57" y="94.71" class="st2" v:langID="2057"><v:paragraph v:horizAlign="2"/><v:tabList/>Dm</text>		</g>
		<g id="shape10-4" v:mID="10" v:groupContext="shape" transform="translate(102.547,-85.8394)">
			<title>Sheet.10</title>
			<rect x="0" y="86.6394" width="28.3465" height="11.3386" class="st3"/>
		</g>
		<g id="shape14-6" v:mID="14" v:groupContext="shape" transform="translate(17.5079,-85.8394)">
			<title>Sheet.14</title>
			<rect x="0" y="86.6394" width="28.3465" height="11.3386" class="st3"/>
		</g>
		<g id="shape21-8" v:mID="21" v:groupContext="shape" transform="translate(45.8543,-85.8394)">
			<title>Sheet.21</title>
			<rect x="0" y="86.6394" width="28.3465" height="11.3386" class="st3"/>
		</g>
		<g id="shape22-10" v:mID="22" v:groupContext="shape" transform="translate(45.8543,-85.8394)">
			<title>Sheet.22</title>
			<path d="M0 86.64 L0 97.98" class="st4"/>
		</g>
		<g id="shape36-13" v:mID="36" v:groupContext="shape" transform="translate(74.2008,-85.8394)">
			<title>Sheet.36</title>
			<rect x="0" y="86.6394" width="28.3465" height="11.3386" class="st3"/>
		</g>
		<g id="shape39-15" v:mID="39" v:groupContext="shape" transform="translate(74.2008,-85.8394)">
			<title>Sheet.39</title>
			<path d="M0 86.64 L0 97.98" class="st4"/>
		</g>
		<g id="shape44-18" v:mID="44" v:groupContext="shape" transform="translate(17.5079,-85.8394)">
			<title>Sheet.44</title>
			<rect x="0" y="86.6394" width="113.386" height="11.3386" class="st5"/>
			<rect x="0" y="86.6394" width="113.386" height="11.3386" class="st6"/>
		</g>
		<g id="shape47-21" v:mID="47" v:groupContext="shape" transform="translate(102.547,-85.8394)">
			<title>Sheet.47</title>
			<path d="M0 86.64 L0 97.98" class="st4"/>
		</g>
		<g id="shape75-24" v:mID="75" v:groupContext="shape" transform="translate(68.5315,-0.8)">
			<title>Sheet.75</title>
			<desc>Dd</desc>
			<v:textBlock v:margins="rect(1,2,1,0)" v:tabSpace="42.5197"/>
			<v:textRect cx="8.50394" cy="92.3087" width="17.01" height="11.3386"/>
			<rect x="0" y="86.6394" width="17.0079" height="11.3386" class="st1"/>
			<text x="4.78" y="94.71" class="st2" v:langID="2057"><v:paragraph v:horizAlign="2"/><v:tabList/>Dd</text>		</g>
		<g id="shape76-27" v:mID="76" v:groupContext="shape" transform="translate(121.214,-27.654) rotate(66.0375)">
			<title>Signal 2.76</title>
			<path d="M0 97.98 L23.32 97.98" class="st7"/>
		</g>
		<g id="shape55-33" v:mID="55" v:groupContext="shape" transform="translate(177.907,-27.654) rotate(66.0375)">
			<title>Signal 2.55</title>
			<path d="M0 97.98 L23.32 97.98" class="st7"/>
		</g>
		<g id="shape1-38" v:mID="1" v:groupContext="shape" transform="translate(40.185,-48.989)">
			<title>Sheet.1</title>
			<desc>+</desc>
			<v:textBlock v:margins="rect(1,1,1,1)" v:tabSpace="42.5197"/>
			<v:textRect cx="5.66929" cy="92.3087" width="11.34" height="11.3386"/>
			<rect x="0" y="86.6394" width="11.3386" height="11.3386" class="st5"/>
			<rect x="0" y="86.6394" width="11.3386" height="11.3386" class="st6"/>
			<text x="3.33" y="94.71" class="st2" v:langID="2057"><v:paragraph v:horizAlign="1"/><v:tabList/>+</text>		</g>
		<g id="shape2-42" v:mID="2" v:groupContext="shape" transform="translate(96.878,-48.989)">
			<title>Sheet.2</title>
			<desc>+</desc>
			<v:textBlock v:margins="rect(1,1,1,1)" v:tabSpace="42.5197"/>
			<v:textRect cx="5.66929" cy="92.3087" width="11.34" height="11.3386"/>
			<rect x="0" y="86.6394" width="11.3386" height="11.3386" class="st5"/>
			<rect x="0" y="86.6394" width="11.3386" height="11.3386" class="st6"/>
			<text x="3.33" y="94.71" class="st2" v:langID="2057"><v:paragraph v:horizAlign="1"/><v:tabList/>+</text>		</g>
		<g id="shape3-46" v:mID="3" v:groupContext="shape" transform="translate(101.181,-31.8729) rotate(34.3803)">
			<title>Signal 2.3</title>
			<path d="M0 97.98 L60.66 97.98" class="st7"/>
		</g>
		<g id="shape4-51" v:mID="4" v:groupContext="shape" transform="translate(-29.5058,-27.654) rotate(-66.0375) scale(-1,1)">
			<title>Signal 2.4</title>
			<path d="M0 97.98 L23.32 97.98" class="st7"/>
		</g>
		<g id="shape5-56" v:mID="5" v:groupContext="shape" transform="translate(183.104,-6.78105) rotate(55.3048)">
			<title>Signal 2.5</title>
			<path d="M0 97.98 L40.22 97.98" class="st7"/>
		</g>
		<g id="shape6-61" v:mID="6" v:groupContext="shape" transform="translate(27.1871,-27.654) rotate(-66.0375) scale(-1,1)">
			<title>Signal 2.6</title>
			<path d="M0 97.98 L23.32 97.98" class="st7"/>
		</g>
		<g id="shape77-66" v:mID="77" v:groupContext="shape" transform="translate(136.563,-85.8394)">
			<title>Sheet.77</title>
			<desc>Dn</desc>
			<v:textBlock v:margins="rect(1,2,1,0)" v:tabSpace="42.5197"/>
			<v:textRect cx="8.50394" cy="92.3087" width="17.01" height="11.3386"/>
			<rect x="0" y="86.6394" width="17.0079" height="11.3386" class="st1"/>
			<text x="4.78" y="94.71" class="st2" v:langID="2057"><v:paragraph v:horizAlign="2"/><v:tabList/>Dn</text>		</g>
		<g id="shape78-69" v:mID="78" v:groupContext="shape" transform="translate(238.61,-85.8394)">
			<title>Sheet.78</title>
			<rect x="0" y="86.6394" width="28.3465" height="11.3386" class="st3"/>
		</g>
		<g id="shape79-71" v:mID="79" v:groupContext="shape" transform="translate(153.571,-85.8394)">
			<title>Sheet.79</title>
			<rect x="0" y="86.6394" width="28.3465" height="11.3386" class="st3"/>
		</g>
		<g id="shape80-73" v:mID="80" v:groupContext="shape" transform="translate(181.917,-85.8394)">
			<title>Sheet.80</title>
			<rect x="0" y="86.6394" width="28.3465" height="11.3386" class="st3"/>
		</g>
		<g id="shape81-75" v:mID="81" v:groupContext="shape" transform="translate(181.917,-85.8394)">
			<title>Sheet.81</title>
			<path d="M0 86.64 L0 97.98" class="st4"/>
		</g>
		<g id="shape82-78" v:mID="82" v:groupContext="shape" transform="translate(210.264,-85.8394)">
			<title>Sheet.82</title>
			<rect x="0" y="86.6394" width="28.3465" height="11.3386" class="st3"/>
		</g>
		<g id="shape83-80" v:mID="83" v:groupContext="shape" transform="translate(210.264,-85.8394)">
			<title>Sheet.83</title>
			<path d="M0 86.64 L0 97.98" class="st4"/>
		</g>
		<g id="shape84-83" v:mID="84" v:groupContext="shape" transform="translate(153.571,-85.8394)">
			<title>Sheet.84</title>
			<rect x="0" y="86.6394" width="113.386" height="11.3386" class="st5"/>
			<rect x="0" y="86.6394" width="113.386" height="11.3386" class="st6"/>
		</g>
		<g id="shape85-86" v:mID="85" v:groupContext="shape" transform="translate(238.61,-85.8394)">
			<title>Sheet.85</title>
			<path d="M0 86.64 L0 97.98" class="st4"/>
		</g>
		<g id="shape86-89" v:mID="86" v:groupContext="shape" transform="translate(257.277,-27.654) rotate(66.0375)">
			<title>Signal 2.86</title>
			<path d="M0 97.98 L23.32 97.98" class="st7"/>
		</g>
		<g id="shape87-94" v:mID="87" v:groupContext="shape" transform="translate(313.97,-27.654) rotate(66.0375)">
			<title>Signal 2.87</title>
			<path d="M0 97.98 L23.32 97.98" class="st7"/>
		</g>
		<g id="shape88-99" v:mID="88" v:groupContext="shape" transform="translate(176.248,-48.989)">
			<title>Sheet.88</title>
			<desc>+</desc>
			<v:textBlock v:margins="rect(1,1,1,1)" v:tabSpace="42.5197"/>
			<v:textRect cx="5.66929" cy="92.3087" width="11.34" height="11.3386"/>
			<rect x="0" y="86.6394" width="11.3386" height="11.3386" class="st5"/>
			<rect x="0" y="86.6394" width="11.3386" height="11.3386" class="st6"/>
			<text x="3.33" y="94.71" class="st2" v:langID="2057"><v:paragraph v:horizAlign="1"/><v:tabList/>+</text>		</g>
		<g id="shape89-103" v:mID="89" v:groupContext="shape" transform="translate(232.941,-48.989)">
			<title>Sheet.89</title>
			<desc>+</desc>
			<v:textBlock v:margins="rect(1,1,1,1)" v:tabSpace="42.5197"/>
			<v:textRect cx="5.66929" cy="92.3087" width="11.34" height="11.3386"/>
			<rect x="0" y="86.6394" width="11.3386" height="11.3386" class="st5"/>
			<rect x="0" y="86.6394" width="11.3386" height="11.3386" class="st6"/>
			<text x="3.33" y="94.71" class="st2" v:langID="2057"><v:paragraph v:horizAlign="1"/><v:tabList/>+</text>		</g>
		<g id="shape90-107" v:mID="90" v:groupContext="shape" transform="translate(106.557,-27.654) rotate(-66.0375) scale(-1,1)">
			<title>Signal 2.90</title>
			<path d="M0 97.98 L23.32 97.98" class="st7"/>
		</g>
		<g id="shape91-112" v:mID="91" v:groupContext="shape" transform="translate(163.25,-27.654) rotate(-66.0375) scale(-1,1)">
			<title>Signal 2.91</title>
			<path d="M0 97.98 L23.32 97.98" class="st7"/>
		</g>
		<g id="group101-117" transform="translate(85.5394,-0.8)" v:mID="101" v:groupContext="group">
			<title>Sheet.101</title>
			<g id="shape93-118" v:mID="93" v:groupContext="shape" transform="translate(85.0394,0)">
				<title>Sheet.93</title>
				<rect x="0" y="86.6394" width="28.3465" height="11.3386" class="st3"/>
			</g>
			<g id="shape94-120" v:mID="94" v:groupContext="shape">
				<title>Sheet.94</title>
				<rect x="0" y="86.6394" width="28.3465" height="11.3386" class="st3"/>
			</g>
			<g id="shape95-122" v:mID="95" v:groupContext="shape" transform="translate(28.3465,0)">
				<title>Sheet.95</title>
				<rect x="0" y="86.6394" width="28.3465" height="11.3386" class="st3"/>
			</g>
			<g id="shape96-124" v:mID="96" v:groupContext="shape" transform="translate(28.3465,0)">
				<title>Sheet.96</title>
				<path d="M0 86.64 L0 97.98" class="st4"/>
			</g>
			<g id="shape97-127" v:mID="97" v:groupContext="shape" transform="translate(56.6929,0)">
				<title>Sheet.97</title>
				<rect x="0" y="86.6394" width="28.3465" height="11.3386" class="st3"/>
			</g>
			<g id="shape98-129" v:mID="98" v:groupContext="shape" transform="translate(56.6929,0)">
				<title>Sheet.98</title>
				<path d="M0 86.64 L0 97.98" class="st4"/>
			</g>
			<g id="shape99-132" v:mID="99" v:groupContext="shape">
				<title>Sheet.99</title>
				<rect x="0" y="86.6394" width="113.386" height="11.3386" class="st5"/>
				<rect x="0" y="86.6394" width="113.386" height="11.3386" class="st6"/>
			</g>
			<g id="shape100-135" v:mID="100" v:groupContext="shape" transform="translate(85.0394,0)">
				<title>Sheet.100</title>
				<path d="M0 86.64 L0 97.98" class="st4"/>
			</g>
		</g>
		<g id="shape9-138" v:mID="9" v:groupContext="shape" transform="translate(183.284,-31.8729) rotate(-34.3803) scale(-1,1)">
			<title>Signal 2.9</title>
			<path d="M0 97.98 L60.66 97.98" class="st7"/>
		</g>
		<g id="shape11-143" v:mID="11" v:groupContext="shape" transform="translate(101.361,-6.78105) rotate(-55.3048) scale(-1,1)">
			<title>Signal 2.11</title>
			<path d="M0 97.98 L40.22 97.98" class="st7"/>
		</g>
	</g>
</svg>
