<?xml version="1.0" encoding="UTF-8" standalone="no"?>
<!DOCTYPE svg PUBLIC "-//W3C//DTD SVG 1.0//EN" "http://www.w3.org/TR/2001/REC-SVG-20010904/DTD/svg10.dtd">
<!-- Generated by Microsoft Visio 11.0, SVG Export, v1.0 vrev16_operation_examples.svg Page-1 -->
<!-- Copyright (c) 2014 ARM Limited or its affiliates. All rights reserved. -->
<svg xmlns="http://www.w3.org/2000/svg" 
     xmlns:xlink="http://www.w3.org/1999/xlink" 
     xmlns:v="http://schemas.microsoft.com/visio/2003/SVGExtensions/" width="1.82908in"
		height="1.55349in" viewBox="0 0 131.694 111.851" xml:space="preserve" color-interpolation-filters="sRGB" class="st9">
	<v:documentProperties v:langID="1033" v:metric="true" v:viewMarkup="false"/>

	<style type="text/css">
	<![CDATA[
		.st1 {fill:none;stroke:none;stroke-linecap:butt;stroke-width:0.5}
		.st2 {fill:#000000;font-family:Arial;font-size:0.666664em}
		.st3 {fill:#ffffff;stroke:none;stroke-linecap:round;stroke-linejoin:round;stroke-width:0.0169691}
		.st4 {stroke:#000000;stroke-linecap:butt;stroke-width:0.5}
		.st5 {fill:#ffffff;visibility:hidden}
		.st6 {stroke:#000000;stroke-linecap:butt;stroke-width:0.8}
		.st7 {marker-end:url(#mrkr4-93);stroke:#000000;stroke-linecap:butt;stroke-width:0.5}
		.st8 {fill:#000000;fill-opacity:1;stroke:#000000;stroke-opacity:1;stroke-width:0.21739130434783}
		.st9 {fill:none;fill-rule:evenodd;font-size:12;overflow:visible;stroke-linecap:square;stroke-miterlimit:3}
	]]>
	</style>

	<defs id="Markers">
		<g id="lend4">
			<path d="M 2 1 L -0 0 L 2 -1 L 2 1 " style="stroke:none"/>
		</g>
		<marker id="mrkr4-93" class="st8" v:arrowType="4" v:arrowSize="1" v:setback="9.2" refX="-9.2" orient="auto"
				markerUnits="strokeWidth">
			<use xlink:href="#lend4" transform="scale(-4.6,-4.6) "/>
		</marker>
	</defs>
	<g v:mID="0" v:index="1" v:groupContext="foregroundPage">
		<title>Page-1</title>
		<v:pageProperties v:drawingScale="0.0393701" v:pageScale="0.0393701" v:drawingUnits="24" v:shadowOffsetX="0"
				v:shadowOffsetY="0" v:shadowType="1" v:shadowScale="0"/>
		<g id="shape9-1" v:mID="9" v:groupContext="shape" transform="translate(0.5,-85.8394)">
			<title>Sheet.9</title>
			<desc>Dm</desc>
			<v:textBlock v:margins="rect(1,2,1,0)" v:tabSpace="42.5197"/>
			<v:textRect cx="8.50394" cy="106.182" width="17.01" height="11.3386"/>
			<rect x="0" y="100.513" width="17.0079" height="11.3386" class="st1"/>
			<text x="2.57" y="108.58" class="st2" v:langID="2057"><v:paragraph v:horizAlign="2"/><v:tabList/>Dm</text>		</g>
		<g id="shape1-4" v:mID="1" v:groupContext="shape" transform="translate(102.547,-85.8394)">
			<title>Sheet.1</title>
			<rect x="0" y="100.513" width="14.1732" height="11.3386" class="st3"/>
		</g>
		<g id="shape4-6" v:mID="4" v:groupContext="shape" transform="translate(116.72,-85.8394)">
			<title>Sheet.4</title>
			<rect x="0" y="100.513" width="14.1732" height="11.3386" class="st3"/>
		</g>
		<g id="shape2-8" v:mID="2" v:groupContext="shape" transform="translate(17.5079,-85.8394)">
			<title>Sheet.2</title>
			<rect x="0" y="100.513" width="14.1732" height="11.3386" class="st3"/>
		</g>
		<g id="shape37-10" v:mID="37" v:groupContext="shape" transform="translate(31.6811,-85.8394)">
			<title>Sheet.37</title>
			<rect x="0" y="100.513" width="14.1732" height="11.3386" class="st3"/>
		</g>
		<g id="shape38-12" v:mID="38" v:groupContext="shape" transform="translate(31.6811,-85.8394)">
			<title>Sheet.38</title>
			<path d="M0 100.51 L0 111.85" class="st4"/>
		</g>
		<g id="shape41-15" v:mID="41" v:groupContext="shape" transform="translate(45.8543,-85.8394)">
			<title>Sheet.41</title>
			<rect x="0" y="100.513" width="14.1732" height="11.3386" class="st3"/>
		</g>
		<g id="shape42-17" v:mID="42" v:groupContext="shape" transform="translate(45.8543,-85.8394)">
			<title>Sheet.42</title>
			<path d="M0 100.51 L0 111.85" class="st4"/>
		</g>
		<g id="shape45-20" v:mID="45" v:groupContext="shape" transform="translate(60.0276,-85.8394)">
			<title>Sheet.45</title>
			<rect x="0" y="100.513" width="14.1732" height="11.3386" class="st3"/>
		</g>
		<g id="shape46-22" v:mID="46" v:groupContext="shape" transform="translate(60.0276,-85.8394)">
			<title>Sheet.46</title>
			<path d="M0 100.51 L0 111.85" class="st4"/>
		</g>
		<g id="shape49-25" v:mID="49" v:groupContext="shape" transform="translate(74.2008,-85.8394)">
			<title>Sheet.49</title>
			<rect x="0" y="100.513" width="14.1732" height="11.3386" class="st3"/>
		</g>
		<g id="shape50-27" v:mID="50" v:groupContext="shape" transform="translate(74.2008,-85.8394)">
			<title>Sheet.50</title>
			<path d="M0 100.51 L0 111.85" class="st4"/>
		</g>
		<g id="shape53-30" v:mID="53" v:groupContext="shape" transform="translate(88.374,-85.8394)">
			<title>Sheet.53</title>
			<rect x="0" y="100.513" width="14.1732" height="11.3386" class="st3"/>
		</g>
		<g id="shape54-32" v:mID="54" v:groupContext="shape" transform="translate(88.374,-85.8394)">
			<title>Sheet.54</title>
			<path d="M0 100.51 L0 111.85" class="st4"/>
		</g>
		<g id="shape97-35" v:mID="97" v:groupContext="shape" transform="translate(17.5079,-85.8394)">
			<title>Sheet.97</title>
			<rect x="0" y="100.513" width="113.386" height="11.3386" class="st5"/>
			<rect x="0" y="100.513" width="113.386" height="11.3386" class="st6"/>
		</g>
		<g id="shape3-38" v:mID="3" v:groupContext="shape" transform="translate(102.547,-85.8394)">
			<title>Sheet.3</title>
			<path d="M0 100.51 L0 111.85" class="st4"/>
		</g>
		<g id="shape5-41" v:mID="5" v:groupContext="shape" transform="translate(116.72,-85.8394)">
			<title>Sheet.5</title>
			<path d="M0 100.51 L0 111.85" class="st4"/>
		</g>
		<g id="group7-44" transform="translate(17.5079,-0.8)" v:mID="7" v:groupContext="group">
			<title>Sheet.7</title>
			<g id="shape11-45" v:mID="11" v:groupContext="shape" transform="translate(85.0394,1.42109E-014)">
				<title>Sheet.11</title>
				<rect x="0" y="100.513" width="14.1732" height="11.3386" class="st3"/>
			</g>
			<g id="shape12-47" v:mID="12" v:groupContext="shape" transform="translate(99.2126,1.42109E-014)">
				<title>Sheet.12</title>
				<rect x="0" y="100.513" width="14.1732" height="11.3386" class="st3"/>
			</g>
			<g id="shape15-49" v:mID="15" v:groupContext="shape">
				<title>Sheet.15</title>
				<rect x="0" y="100.513" width="14.1732" height="11.3386" class="st3"/>
			</g>
			<g id="shape16-51" v:mID="16" v:groupContext="shape" transform="translate(14.1732,1.42109E-014)">
				<title>Sheet.16</title>
				<rect x="0" y="100.513" width="14.1732" height="11.3386" class="st3"/>
			</g>
			<g id="shape19-53" v:mID="19" v:groupContext="shape" transform="translate(14.1732,1.42109E-014)">
				<title>Sheet.19</title>
				<path d="M0 100.51 L0 111.85" class="st4"/>
			</g>
			<g id="shape20-56" v:mID="20" v:groupContext="shape" transform="translate(28.3465,1.42109E-014)">
				<title>Sheet.20</title>
				<rect x="0" y="100.513" width="14.1732" height="11.3386" class="st3"/>
			</g>
			<g id="shape23-58" v:mID="23" v:groupContext="shape" transform="translate(28.3465,1.42109E-014)">
				<title>Sheet.23</title>
				<path d="M0 100.51 L0 111.85" class="st4"/>
			</g>
			<g id="shape24-61" v:mID="24" v:groupContext="shape" transform="translate(42.5197,1.42109E-014)">
				<title>Sheet.24</title>
				<rect x="0" y="100.513" width="14.1732" height="11.3386" class="st3"/>
			</g>
			<g id="shape25-63" v:mID="25" v:groupContext="shape" transform="translate(42.5197,1.42109E-014)">
				<title>Sheet.25</title>
				<path d="M0 100.51 L0 111.85" class="st4"/>
			</g>
			<g id="shape26-66" v:mID="26" v:groupContext="shape" transform="translate(56.6929,1.42109E-014)">
				<title>Sheet.26</title>
				<rect x="0" y="100.513" width="14.1732" height="11.3386" class="st3"/>
			</g>
			<g id="shape27-68" v:mID="27" v:groupContext="shape" transform="translate(56.6929,1.42109E-014)">
				<title>Sheet.27</title>
				<path d="M0 100.51 L0 111.85" class="st4"/>
			</g>
			<g id="shape28-71" v:mID="28" v:groupContext="shape" transform="translate(70.8661,1.42109E-014)">
				<title>Sheet.28</title>
				<rect x="0" y="100.513" width="14.1732" height="11.3386" class="st3"/>
			</g>
			<g id="shape29-73" v:mID="29" v:groupContext="shape" transform="translate(70.8661,1.42109E-014)">
				<title>Sheet.29</title>
				<path d="M0 100.51 L0 111.85" class="st4"/>
			</g>
			<g id="shape30-76" v:mID="30" v:groupContext="shape">
				<title>Sheet.30</title>
				<rect x="0" y="100.513" width="113.386" height="11.3386" class="st5"/>
				<rect x="0" y="100.513" width="113.386" height="11.3386" class="st6"/>
			</g>
			<g id="shape31-79" v:mID="31" v:groupContext="shape" transform="translate(85.0394,1.42109E-014)">
				<title>Sheet.31</title>
				<path d="M0 100.51 L0 111.85" class="st4"/>
			</g>
			<g id="shape32-82" v:mID="32" v:groupContext="shape" transform="translate(99.2126,1.42109E-014)">
				<title>Sheet.32</title>
				<path d="M0 100.51 L0 111.85" class="st4"/>
			</g>
		</g>
		<g id="shape35-85" v:mID="35" v:groupContext="shape" transform="translate(0.5,-0.8)">
			<title>Sheet.35</title>
			<desc>Dd</desc>
			<v:textBlock v:margins="rect(1,2,1,0)" v:tabSpace="42.5197"/>
			<v:textRect cx="8.50394" cy="106.182" width="17.01" height="11.3386"/>
			<rect x="0" y="100.513" width="17.0079" height="11.3386" class="st1"/>
			<text x="4.78" y="108.58" class="st2" v:langID="2057"><v:paragraph v:horizAlign="2"/><v:tabList/>Dd</text>		</g>
		<g id="shape51-88" v:mID="51" v:groupContext="shape" transform="translate(218.506,5.39892) rotate(79.3803)">
			<title>Signal 2</title>
			<path d="M0 111.85 L70.39 111.85" class="st7"/>
		</g>
		<g id="shape52-94" v:mID="52" v:groupContext="shape" transform="translate(133.016,4.88901) rotate(79.1145)">
			<title>Signal 2.52</title>
			<path d="M0 111.85 L70.45 111.85" class="st7"/>
		</g>
		<g id="shape55-99" v:mID="55" v:groupContext="shape" transform="translate(189.709,4.88901) rotate(79.1145)">
			<title>Signal 2.55</title>
			<path d="M0 111.85 L70.45 111.85" class="st7"/>
		</g>
		<g id="shape56-104" v:mID="56" v:groupContext="shape" transform="translate(164.197,4.88901) rotate(79.1145)">
			<title>Signal 2.56</title>
			<path d="M0 111.85 L70.45 111.85" class="st7"/>
		</g>
		<g id="shape57-109" v:mID="57" v:groupContext="shape" transform="translate(12.5512,4.88901) rotate(-79.1145) scale(-1,1)">
			<title>Signal 2.57</title>
			<path d="M0 111.85 L70.45 111.85" class="st7"/>
		</g>
		<g id="shape58-114" v:mID="58" v:groupContext="shape" transform="translate(-12.1089,0.86101) rotate(-77.0054) scale(-1,1)">
			<title>Signal 2.58</title>
			<path d="M0 111.85 L71.04 111.85" class="st7"/>
		</g>
		<g id="shape59-119" v:mID="59" v:groupContext="shape" transform="translate(-73.2001,9.00404) rotate(-81.2538) scale(-1,1)">
			<title>Signal 2.59</title>
			<path d="M0 111.85 L69.97 111.85" class="st7"/>
		</g>
		<g id="shape60-124" v:mID="60" v:groupContext="shape" transform="translate(-44.1417,4.88901) rotate(-79.1145) scale(-1,1)">
			<title>Signal 2.60</title>
			<path d="M0 111.85 L70.45 111.85" class="st7"/>
		</g>
		<g id="shape98-129" v:mID="98" v:groupContext="shape" transform="translate(0.5,-100.013)">
			<title>Sheet.98</title>
			<desc>VREV16.8, doubleword</desc>
			<v:textBlock v:margins="rect(1,0,1,2)" v:tabSpace="42.5197"/>
			<v:textRect cx="45.3543" cy="106.182" width="90.71" height="11.3386"/>
			<rect x="0" y="100.513" width="90.7087" height="11.3386" class="st1"/>
			<text x="2" y="108.58" class="st2" v:langID="2057"><v:paragraph/><v:tabList/>VREV16.8, doubleword</text>		</g>
	</g>
</svg>
