<?xml version="1.0" encoding="UTF-8" standalone="no"?>
<!DOCTYPE svg PUBLIC "-//W3C//DTD SVG 1.0//EN" "http://www.w3.org/TR/2001/REC-SVG-20010904/DTD/svg10.dtd">
<!-- Generated by Microsoft Visio 11.0, SVG Export, v1.0 vpadal_doubleword_operation_for_data_type_s16.svg Page-1 -->
<!-- Copyright (c) 2014 ARM Limited or its affiliates. All rights reserved. -->
<svg xmlns="http://www.w3.org/2000/svg" 
     xmlns:xlink="http://www.w3.org/1999/xlink" 
     xmlns:v="http://schemas.microsoft.com/visio/2003/SVGExtensions/" width="1.8894in"
		height="1.3608in" viewBox="0 0 136.037 97.978" xml:space="preserve" color-interpolation-filters="sRGB" class="st10">
	<v:documentProperties v:langID="1033" v:metric="true" v:viewMarkup="false"/>

	<style type="text/css">
	<![CDATA[
		.st1 {fill:none;stroke:none;stroke-linecap:butt;stroke-width:0.5}
		.st2 {fill:#000000;font-family:Arial;font-size:0.666664em}
		.st3 {fill:#ffffff;stroke:none;stroke-linecap:round;stroke-linejoin:round;stroke-width:0.0169691}
		.st4 {stroke:#000000;stroke-linecap:butt;stroke-width:0.5}
		.st5 {fill:#ffffff;visibility:hidden}
		.st6 {stroke:#000000;stroke-linecap:butt;stroke-width:0.8}
		.st7 {marker-end:url(#mrkr4-32);stroke:#000000;stroke-linecap:butt;stroke-width:0.5}
		.st8 {fill:#000000;fill-opacity:1;stroke:#000000;stroke-opacity:1;stroke-width:0.21739130434783}
		.st9 {marker-end:url(#mrkr10-85);marker-start:url(#mrkr4-83);stroke:#000000;stroke-linecap:butt;stroke-width:0.5}
		.st10 {fill:none;fill-rule:evenodd;font-size:12;overflow:visible;stroke-linecap:square;stroke-miterlimit:3}
	]]>
	</style>

	<defs id="Markers">
		<g id="lend4">
			<path d="M 2 1 L -0 0 L 2 -1 L 2 1 " style="stroke:none"/>
		</g>
		<marker id="mrkr4-32" class="st8" v:arrowType="4" v:arrowSize="1" v:setback="9.2" refX="-9.2" orient="auto"
				markerUnits="strokeWidth">
			<use xlink:href="#lend4" transform="scale(-4.6,-4.6) "/>
		</marker>
		<marker id="mrkr4-83" class="st8" v:arrowType="4" v:arrowSize="1" v:setback="8.48" refX="8.48" orient="auto"
				markerUnits="strokeWidth">
			<use xlink:href="#lend4" transform="scale(4.6) "/>
		</marker>
		<g id="lend10">
			<path
					d="M 0 0.75 C -0.414214 0.75 -0.75 0.414214 -0.75 -0 -0.75 -0.414214 -0.414214 -0.75 -0 -0.75 0.414214 -0.75 0.75 -0.414214 0.75 -0 0.75 0.414214 0.414214 0.75 0 0.75 Z "
					style="stroke:none"/>
		</g>
		<marker id="mrkr10-85" class="st8" v:arrowType="10" v:arrowSize="1" v:setback="3.45" refX="-3.45" orient="auto"
				markerUnits="strokeWidth">
			<use xlink:href="#lend10" transform="scale(-4.6,-4.6) "/>
		</marker>
	</defs>
	<g v:mID="0" v:index="1" v:groupContext="foregroundPage">
		<title>Page-1</title>
		<v:pageProperties v:drawingScale="0.0393701" v:pageScale="0.0393701" v:drawingUnits="24" v:shadowOffsetX="0"
				v:shadowOffsetY="0" v:shadowType="1" v:shadowScale="0"/>
		<g id="shape8-1" v:mID="8" v:groupContext="shape" transform="translate(0.5,-85.8394)">
			<title>Sheet.8</title>
			<desc>Dm</desc>
			<v:textBlock v:margins="rect(1,2,1,0)" v:tabSpace="42.5197"/>
			<v:textRect cx="8.50394" cy="92.3087" width="17.01" height="11.3386"/>
			<rect x="0" y="86.6394" width="17.0079" height="11.3386" class="st1"/>
			<text x="2.57" y="94.71" class="st2" v:langID="2057"><v:paragraph v:horizAlign="2"/><v:tabList/>Dm</text>		</g>
		<g id="shape10-4" v:mID="10" v:groupContext="shape" transform="translate(102.547,-85.8394)">
			<title>Sheet.10</title>
			<rect x="0" y="86.6394" width="28.3465" height="11.3386" class="st3"/>
		</g>
		<g id="shape14-6" v:mID="14" v:groupContext="shape" transform="translate(17.5079,-85.8394)">
			<title>Sheet.14</title>
			<rect x="0" y="86.6394" width="28.3465" height="11.3386" class="st3"/>
		</g>
		<g id="shape21-8" v:mID="21" v:groupContext="shape" transform="translate(45.8543,-85.8394)">
			<title>Sheet.21</title>
			<rect x="0" y="86.6394" width="28.3465" height="11.3386" class="st3"/>
		</g>
		<g id="shape22-10" v:mID="22" v:groupContext="shape" transform="translate(45.8543,-85.8394)">
			<title>Sheet.22</title>
			<path d="M0 86.64 L0 97.98" class="st4"/>
		</g>
		<g id="shape36-13" v:mID="36" v:groupContext="shape" transform="translate(74.2008,-85.8394)">
			<title>Sheet.36</title>
			<rect x="0" y="86.6394" width="28.3465" height="11.3386" class="st3"/>
		</g>
		<g id="shape39-15" v:mID="39" v:groupContext="shape" transform="translate(74.2008,-85.8394)">
			<title>Sheet.39</title>
			<path d="M0 86.64 L0 97.98" class="st4"/>
		</g>
		<g id="shape44-18" v:mID="44" v:groupContext="shape" transform="translate(17.5079,-85.8394)">
			<title>Sheet.44</title>
			<rect x="0" y="86.6394" width="113.386" height="11.3386" class="st5"/>
			<rect x="0" y="86.6394" width="113.386" height="11.3386" class="st6"/>
		</g>
		<g id="shape47-21" v:mID="47" v:groupContext="shape" transform="translate(102.547,-85.8394)">
			<title>Sheet.47</title>
			<path d="M0 86.64 L0 97.98" class="st4"/>
		</g>
		<g id="shape75-24" v:mID="75" v:groupContext="shape" transform="translate(0.5,-0.8)">
			<title>Sheet.75</title>
			<desc>Dd</desc>
			<v:textBlock v:margins="rect(1,2,1,0)" v:tabSpace="42.5197"/>
			<v:textRect cx="8.50394" cy="92.3087" width="17.01" height="11.3386"/>
			<rect x="0" y="86.6394" width="17.0079" height="11.3386" class="st1"/>
			<text x="4.78" y="94.71" class="st2" v:langID="2057"><v:paragraph v:horizAlign="2"/><v:tabList/>Dd</text>		</g>
		<g id="shape76-27" v:mID="76" v:groupContext="shape" transform="translate(123.76,-21.3447) rotate(70.0169)">
			<title>Signal 2.76</title>
			<path d="M0 97.98 L28.58 97.98" class="st7"/>
		</g>
		<g id="group48-33" transform="translate(17.5079,-0.8)" v:mID="48" v:groupContext="group">
			<title>Sheet.48</title>
			<g id="shape13-34" v:mID="13" v:groupContext="shape">
				<title>Sheet.13</title>
				<rect x="0" y="86.6394" width="56.6929" height="11.3386" class="st3"/>
			</g>
			<g id="shape33-36" v:mID="33" v:groupContext="shape" transform="translate(56.6929,1.42109E-014)">
				<title>Sheet.33</title>
				<rect x="0" y="86.6394" width="56.6929" height="11.3386" class="st3"/>
			</g>
			<g id="shape34-38" v:mID="34" v:groupContext="shape" transform="translate(56.6929,1.42109E-014)">
				<title>Sheet.34</title>
				<path d="M0 86.64 L0 97.98" class="st4"/>
			</g>
			<g id="shape40-41" v:mID="40" v:groupContext="shape">
				<title>Sheet.40</title>
				<rect x="0" y="86.6394" width="113.386" height="11.3386" class="st5"/>
				<rect x="0" y="86.6394" width="113.386" height="11.3386" class="st6"/>
			</g>
		</g>
		<g id="shape55-44" v:mID="55" v:groupContext="shape" transform="translate(180.453,-21.3447) rotate(70.0169)">
			<title>Signal 2.55</title>
			<path d="M0 97.98 L28.58 97.98" class="st7"/>
		</g>
		<g id="shape1-49" v:mID="1" v:groupContext="shape" transform="translate(40.185,-43.3197)">
			<title>Sheet.1</title>
			<desc>+</desc>
			<v:textBlock v:margins="rect(1,1,1,1)" v:tabSpace="42.5197"/>
			<v:textRect cx="5.66929" cy="92.3087" width="11.34" height="11.3386"/>
			<rect x="0" y="86.6394" width="11.3386" height="11.3386" class="st5"/>
			<rect x="0" y="86.6394" width="11.3386" height="11.3386" class="st6"/>
			<text x="3.33" y="94.71" class="st2" v:langID="2057"><v:paragraph v:horizAlign="1"/><v:tabList/>+</text>		</g>
		<g id="shape2-53" v:mID="2" v:groupContext="shape" transform="translate(96.878,-43.3197)">
			<title>Sheet.2</title>
			<desc>+</desc>
			<v:textBlock v:margins="rect(1,1,1,1)" v:tabSpace="42.5197"/>
			<v:textRect cx="5.66929" cy="92.3087" width="11.34" height="11.3386"/>
			<rect x="0" y="86.6394" width="11.3386" height="11.3386" class="st5"/>
			<rect x="0" y="86.6394" width="11.3386" height="11.3386" class="st6"/>
			<text x="3.33" y="94.71" class="st2" v:langID="2057"><v:paragraph v:horizAlign="1"/><v:tabList/>+</text>		</g>
		<g id="shape3-57" v:mID="3" v:groupContext="shape" transform="translate(143.832,54.6583) rotate(90)">
			<title>Signal 2.3</title>
			<path d="M0 97.98 L26.58 97.98" class="st7"/>
		</g>
		<g id="shape4-62" v:mID="4" v:groupContext="shape" transform="translate(-32.0515,-21.3447) rotate(-70.0169) scale(-1,1)">
			<title>Signal 2.4</title>
			<path d="M0 97.98 L28.58 97.98" class="st7"/>
		</g>
		<g id="shape5-67" v:mID="5" v:groupContext="shape" transform="translate(200.525,54.6583) rotate(90)">
			<title>Signal 2.5</title>
			<path d="M0 97.98 L26.58 97.98" class="st7"/>
		</g>
		<g id="shape6-72" v:mID="6" v:groupContext="shape" transform="translate(24.6414,-21.3447) rotate(-70.0169) scale(-1,1)">
			<title>Signal 2.6</title>
			<path d="M0 97.98 L28.58 97.98" class="st7"/>
		</g>
		<g id="shape11-77" v:mID="11" v:groupContext="shape" transform="translate(51.5236,-6.46929)">
			<title>Sheet.11</title>
			<path d="M3.97 56.95 L4.31 57.07 L22.68 63.96 L17.29 96.28" class="st9"/>
		</g>
		<g id="shape7-86" v:mID="7" v:groupContext="shape" transform="translate(108.217,-6.46929)">
			<title>Sheet.7</title>
			<path d="M3.97 56.95 L4.31 57.07 L22.68 63.96 L17.29 96.28" class="st9"/>
		</g>
	</g>
</svg>
