<?xml version="1.0" encoding="UTF-8" standalone="no"?>
<!DOCTYPE svg PUBLIC "-//W3C//DTD SVG 1.0//EN" "http://www.w3.org/TR/2001/REC-SVG-20010904/DTD/svg10.dtd">
<!-- Generated by Microsoft Visio 11.0, SVG Export, v1.0 vrev32_operation_examples.svg Page-1 -->
<!-- Copyright (c) 2014 ARM Limited or its affiliates. All rights reserved. -->
<svg xmlns="http://www.w3.org/2000/svg" 
     xmlns:xlink="http://www.w3.org/1999/xlink" 
     xmlns:v="http://schemas.microsoft.com/visio/2003/SVGExtensions/" width="5.52987in"
		height="1.55349in" viewBox="0 0 398.15 111.851" xml:space="preserve" color-interpolation-filters="sRGB" class="st9">
	<v:documentProperties v:langID="1033" v:metric="true" v:viewMarkup="false"/>

	<style type="text/css">
	<![CDATA[
		.st1 {fill:none;stroke:none;stroke-linecap:butt;stroke-width:0.5}
		.st2 {fill:#000000;font-family:Arial;font-size:0.666664em}
		.st3 {fill:#ffffff;stroke:none;stroke-linecap:round;stroke-linejoin:round;stroke-width:0.0169691}
		.st4 {stroke:#000000;stroke-linecap:butt;stroke-width:0.5}
		.st5 {fill:#ffffff;visibility:hidden}
		.st6 {stroke:#000000;stroke-linecap:butt;stroke-width:0.8}
		.st7 {marker-end:url(#mrkr4-116);stroke:#000000;stroke-linecap:butt;stroke-width:0.5}
		.st8 {fill:#000000;fill-opacity:1;stroke:#000000;stroke-opacity:1;stroke-width:0.21739130434783}
		.st9 {fill:none;fill-rule:evenodd;font-size:12;overflow:visible;stroke-linecap:square;stroke-miterlimit:3}
	]]>
	</style>

	<defs id="Markers">
		<g id="lend4">
			<path d="M 2 1 L -0 0 L 2 -1 L 2 1 " style="stroke:none"/>
		</g>
		<marker id="mrkr4-116" class="st8" v:arrowType="4" v:arrowSize="1" v:setback="9.2" refX="-9.2" orient="auto"
				markerUnits="strokeWidth">
			<use xlink:href="#lend4" transform="scale(-4.6,-4.6) "/>
		</marker>
	</defs>
	<g v:mID="0" v:index="1" v:groupContext="foregroundPage">
		<title>Page-1</title>
		<v:pageProperties v:drawingScale="0.0393701" v:pageScale="0.0393701" v:drawingUnits="24" v:shadowOffsetX="0"
				v:shadowOffsetY="0" v:shadowType="1" v:shadowScale="0"/>
		<g id="shape9-1" v:mID="9" v:groupContext="shape" transform="translate(0.5,-85.8394)">
			<title>Sheet.9</title>
			<desc>Dm</desc>
			<v:textBlock v:margins="rect(1,2,1,0)" v:tabSpace="42.5197"/>
			<v:textRect cx="8.50394" cy="106.182" width="17.01" height="11.3386"/>
			<rect x="0" y="100.513" width="17.0079" height="11.3386" class="st1"/>
			<text x="2.57" y="108.58" class="st2" v:langID="2057"><v:paragraph v:horizAlign="2"/><v:tabList/>Dm</text>		</g>
		<g id="shape1-4" v:mID="1" v:groupContext="shape" transform="translate(102.547,-85.8394)">
			<title>Sheet.1</title>
			<rect x="0" y="100.513" width="14.1732" height="11.3386" class="st3"/>
		</g>
		<g id="shape4-6" v:mID="4" v:groupContext="shape" transform="translate(116.72,-85.8394)">
			<title>Sheet.4</title>
			<rect x="0" y="100.513" width="14.1732" height="11.3386" class="st3"/>
		</g>
		<g id="shape2-8" v:mID="2" v:groupContext="shape" transform="translate(17.5079,-85.8394)">
			<title>Sheet.2</title>
			<rect x="0" y="100.513" width="14.1732" height="11.3386" class="st3"/>
		</g>
		<g id="shape37-10" v:mID="37" v:groupContext="shape" transform="translate(31.6811,-85.8394)">
			<title>Sheet.37</title>
			<rect x="0" y="100.513" width="14.1732" height="11.3386" class="st3"/>
		</g>
		<g id="shape38-12" v:mID="38" v:groupContext="shape" transform="translate(31.6811,-85.8394)">
			<title>Sheet.38</title>
			<path d="M0 100.51 L0 111.85" class="st4"/>
		</g>
		<g id="shape41-15" v:mID="41" v:groupContext="shape" transform="translate(45.8543,-85.8394)">
			<title>Sheet.41</title>
			<rect x="0" y="100.513" width="14.1732" height="11.3386" class="st3"/>
		</g>
		<g id="shape42-17" v:mID="42" v:groupContext="shape" transform="translate(45.8543,-85.8394)">
			<title>Sheet.42</title>
			<path d="M0 100.51 L0 111.85" class="st4"/>
		</g>
		<g id="shape45-20" v:mID="45" v:groupContext="shape" transform="translate(60.0276,-85.8394)">
			<title>Sheet.45</title>
			<rect x="0" y="100.513" width="14.1732" height="11.3386" class="st3"/>
		</g>
		<g id="shape46-22" v:mID="46" v:groupContext="shape" transform="translate(60.0276,-85.8394)">
			<title>Sheet.46</title>
			<path d="M0 100.51 L0 111.85" class="st4"/>
		</g>
		<g id="shape49-25" v:mID="49" v:groupContext="shape" transform="translate(74.2008,-85.8394)">
			<title>Sheet.49</title>
			<rect x="0" y="100.513" width="14.1732" height="11.3386" class="st3"/>
		</g>
		<g id="shape50-27" v:mID="50" v:groupContext="shape" transform="translate(74.2008,-85.8394)">
			<title>Sheet.50</title>
			<path d="M0 100.51 L0 111.85" class="st4"/>
		</g>
		<g id="shape53-30" v:mID="53" v:groupContext="shape" transform="translate(88.374,-85.8394)">
			<title>Sheet.53</title>
			<rect x="0" y="100.513" width="14.1732" height="11.3386" class="st3"/>
		</g>
		<g id="shape54-32" v:mID="54" v:groupContext="shape" transform="translate(88.374,-85.8394)">
			<title>Sheet.54</title>
			<path d="M0 100.51 L0 111.85" class="st4"/>
		</g>
		<g id="shape97-35" v:mID="97" v:groupContext="shape" transform="translate(17.5079,-85.8394)">
			<title>Sheet.97</title>
			<rect x="0" y="100.513" width="113.386" height="11.3386" class="st5"/>
			<rect x="0" y="100.513" width="113.386" height="11.3386" class="st6"/>
		</g>
		<g id="shape3-38" v:mID="3" v:groupContext="shape" transform="translate(102.547,-85.8394)">
			<title>Sheet.3</title>
			<path d="M0 100.51 L0 111.85" class="st4"/>
		</g>
		<g id="shape5-41" v:mID="5" v:groupContext="shape" transform="translate(116.72,-85.8394)">
			<title>Sheet.5</title>
			<path d="M0 100.51 L0 111.85" class="st4"/>
		</g>
		<g id="group7-44" transform="translate(17.5079,-0.8)" v:mID="7" v:groupContext="group">
			<title>Sheet.7</title>
			<g id="shape11-45" v:mID="11" v:groupContext="shape" transform="translate(85.0394,1.42109E-014)">
				<title>Sheet.11</title>
				<rect x="0" y="100.513" width="14.1732" height="11.3386" class="st3"/>
			</g>
			<g id="shape12-47" v:mID="12" v:groupContext="shape" transform="translate(99.2126,1.42109E-014)">
				<title>Sheet.12</title>
				<rect x="0" y="100.513" width="14.1732" height="11.3386" class="st3"/>
			</g>
			<g id="shape15-49" v:mID="15" v:groupContext="shape">
				<title>Sheet.15</title>
				<rect x="0" y="100.513" width="14.1732" height="11.3386" class="st3"/>
			</g>
			<g id="shape16-51" v:mID="16" v:groupContext="shape" transform="translate(14.1732,1.42109E-014)">
				<title>Sheet.16</title>
				<rect x="0" y="100.513" width="14.1732" height="11.3386" class="st3"/>
			</g>
			<g id="shape19-53" v:mID="19" v:groupContext="shape" transform="translate(14.1732,1.42109E-014)">
				<title>Sheet.19</title>
				<path d="M0 100.51 L0 111.85" class="st4"/>
			</g>
			<g id="shape20-56" v:mID="20" v:groupContext="shape" transform="translate(28.3465,1.42109E-014)">
				<title>Sheet.20</title>
				<rect x="0" y="100.513" width="14.1732" height="11.3386" class="st3"/>
			</g>
			<g id="shape23-58" v:mID="23" v:groupContext="shape" transform="translate(28.3465,1.42109E-014)">
				<title>Sheet.23</title>
				<path d="M0 100.51 L0 111.85" class="st4"/>
			</g>
			<g id="shape24-61" v:mID="24" v:groupContext="shape" transform="translate(42.5197,1.42109E-014)">
				<title>Sheet.24</title>
				<rect x="0" y="100.513" width="14.1732" height="11.3386" class="st3"/>
			</g>
			<g id="shape25-63" v:mID="25" v:groupContext="shape" transform="translate(42.5197,1.42109E-014)">
				<title>Sheet.25</title>
				<path d="M0 100.51 L0 111.85" class="st4"/>
			</g>
			<g id="shape26-66" v:mID="26" v:groupContext="shape" transform="translate(56.6929,1.42109E-014)">
				<title>Sheet.26</title>
				<rect x="0" y="100.513" width="14.1732" height="11.3386" class="st3"/>
			</g>
			<g id="shape27-68" v:mID="27" v:groupContext="shape" transform="translate(56.6929,1.42109E-014)">
				<title>Sheet.27</title>
				<path d="M0 100.51 L0 111.85" class="st4"/>
			</g>
			<g id="shape28-71" v:mID="28" v:groupContext="shape" transform="translate(70.8661,1.42109E-014)">
				<title>Sheet.28</title>
				<rect x="0" y="100.513" width="14.1732" height="11.3386" class="st3"/>
			</g>
			<g id="shape29-73" v:mID="29" v:groupContext="shape" transform="translate(70.8661,1.42109E-014)">
				<title>Sheet.29</title>
				<path d="M0 100.51 L0 111.85" class="st4"/>
			</g>
			<g id="shape30-76" v:mID="30" v:groupContext="shape">
				<title>Sheet.30</title>
				<rect x="0" y="100.513" width="113.386" height="11.3386" class="st5"/>
				<rect x="0" y="100.513" width="113.386" height="11.3386" class="st6"/>
			</g>
			<g id="shape31-79" v:mID="31" v:groupContext="shape" transform="translate(85.0394,1.42109E-014)">
				<title>Sheet.31</title>
				<path d="M0 100.51 L0 111.85" class="st4"/>
			</g>
			<g id="shape32-82" v:mID="32" v:groupContext="shape" transform="translate(99.2126,1.42109E-014)">
				<title>Sheet.32</title>
				<path d="M0 100.51 L0 111.85" class="st4"/>
			</g>
		</g>
		<g id="shape8-85" v:mID="8" v:groupContext="shape" transform="translate(340.657,-85.8394)">
			<title>Sheet.8</title>
			<rect x="0" y="100.513" width="56.6929" height="11.3386" class="st3"/>
		</g>
		<g id="shape10-87" v:mID="10" v:groupContext="shape" transform="translate(170.579,-85.8394)">
			<title>Sheet.10</title>
			<rect x="0" y="100.513" width="56.6929" height="11.3386" class="st3"/>
		</g>
		<g id="shape13-89" v:mID="13" v:groupContext="shape" transform="translate(227.272,-85.8394)">
			<title>Sheet.13</title>
			<rect x="0" y="100.513" width="56.6929" height="11.3386" class="st3"/>
		</g>
		<g id="shape14-91" v:mID="14" v:groupContext="shape" transform="translate(227.272,-85.8394)">
			<title>Sheet.14</title>
			<path d="M0 100.51 L0 111.85" class="st4"/>
		</g>
		<g id="shape17-94" v:mID="17" v:groupContext="shape" transform="translate(283.965,-85.8394)">
			<title>Sheet.17</title>
			<rect x="0" y="100.513" width="56.6929" height="11.3386" class="st3"/>
		</g>
		<g id="shape18-96" v:mID="18" v:groupContext="shape" transform="translate(283.965,-85.8394)">
			<title>Sheet.18</title>
			<path d="M0 100.51 L0 111.85" class="st4"/>
		</g>
		<g id="shape21-99" v:mID="21" v:groupContext="shape" transform="translate(170.579,-85.8394)">
			<title>Sheet.21</title>
			<rect x="0" y="100.513" width="226.772" height="11.3386" class="st5"/>
			<rect x="0" y="100.513" width="226.772" height="11.3386" class="st6"/>
		</g>
		<g id="shape22-102" v:mID="22" v:groupContext="shape" transform="translate(340.657,-85.8394)">
			<title>Sheet.22</title>
			<path d="M0 100.51 L0 111.85" class="st4"/>
		</g>
		<g id="shape34-105" v:mID="34" v:groupContext="shape" transform="translate(153.571,-85.8394)">
			<title>Sheet.34</title>
			<desc>Dm</desc>
			<v:textBlock v:margins="rect(1,2,1,0)" v:tabSpace="42.5197"/>
			<v:textRect cx="8.50394" cy="106.182" width="17.01" height="11.3386"/>
			<rect x="0" y="100.513" width="17.0079" height="11.3386" class="st1"/>
			<text x="2.57" y="108.58" class="st2" v:langID="2057"><v:paragraph v:horizAlign="2"/><v:tabList/>Dm</text>		</g>
		<g id="shape35-108" v:mID="35" v:groupContext="shape" transform="translate(0.5,-0.8)">
			<title>Sheet.35</title>
			<desc>Dd</desc>
			<v:textBlock v:margins="rect(1,2,1,0)" v:tabSpace="42.5197"/>
			<v:textRect cx="8.50394" cy="106.182" width="17.01" height="11.3386"/>
			<rect x="0" y="100.513" width="17.0079" height="11.3386" class="st1"/>
			<text x="4.78" y="108.58" class="st2" v:langID="2057"><v:paragraph v:horizAlign="2"/><v:tabList/>Dd</text>		</g>
		<g id="shape51-111" v:mID="51" v:groupContext="shape" transform="translate(203.03,0.86101) rotate(77.0054)">
			<title>Signal 2</title>
			<path d="M0 111.85 L71.04 111.85" class="st7"/>
		</g>
		<g id="shape52-117" v:mID="52" v:groupContext="shape" transform="translate(146.337,0.86101) rotate(77.0054)">
			<title>Signal 2.52</title>
			<path d="M0 111.85 L71.04 111.85" class="st7"/>
		</g>
		<g id="shape55-122" v:mID="55" v:groupContext="shape" transform="translate(175.129,-32.6091) rotate(58.3925)">
			<title>Signal 2.55</title>
			<path d="M0 111.85 L81.94 111.85" class="st7"/>
		</g>
		<g id="shape56-127" v:mID="56" v:groupContext="shape" transform="translate(118.436,-32.6091) rotate(58.3925)">
			<title>Signal 2.56</title>
			<path d="M0 111.85 L81.94 111.85" class="st7"/>
		</g>
		<g id="shape57-132" v:mID="57" v:groupContext="shape" transform="translate(-31.187,-29.8827) rotate(-60.0184) scale(-1,1)">
			<title>Signal 2.57</title>
			<path d="M0 111.85 L80.49 111.85" class="st7"/>
		</g>
		<g id="shape58-137" v:mID="58" v:groupContext="shape" transform="translate(28.3405,-29.8827) rotate(-60.0184) scale(-1,1)">
			<title>Signal 2.58</title>
			<path d="M0 111.85 L80.49 111.85" class="st7"/>
		</g>
		<g id="shape59-142" v:mID="59" v:groupContext="shape" transform="translate(1.2126,4.88901) rotate(-79.1145) scale(-1,1)">
			<title>Signal 2.59</title>
			<path d="M0 111.85 L70.45 111.85" class="st7"/>
		</g>
		<g id="shape60-147" v:mID="60" v:groupContext="shape" transform="translate(-58.315,4.88901) rotate(-79.1145) scale(-1,1)">
			<title>Signal 2.60</title>
			<path d="M0 111.85 L70.45 111.85" class="st7"/>
		</g>
		<g id="group61-152" transform="translate(170.579,-0.8)" v:mID="61" v:groupContext="group">
			<title>Sheet.61</title>
			<g id="shape62-153" v:mID="62" v:groupContext="shape" transform="translate(170.079,1.42109E-014)">
				<title>Sheet.62</title>
				<rect x="0" y="100.513" width="56.6929" height="11.3386" class="st3"/>
			</g>
			<g id="shape63-155" v:mID="63" v:groupContext="shape">
				<title>Sheet.63</title>
				<rect x="0" y="100.513" width="56.6929" height="11.3386" class="st3"/>
			</g>
			<g id="shape64-157" v:mID="64" v:groupContext="shape" transform="translate(56.6929,1.42109E-014)">
				<title>Sheet.64</title>
				<rect x="0" y="100.513" width="56.6929" height="11.3386" class="st3"/>
			</g>
			<g id="shape65-159" v:mID="65" v:groupContext="shape" transform="translate(56.6929,1.42109E-014)">
				<title>Sheet.65</title>
				<path d="M0 100.51 L0 111.85" class="st4"/>
			</g>
			<g id="shape66-162" v:mID="66" v:groupContext="shape" transform="translate(113.386,1.42109E-014)">
				<title>Sheet.66</title>
				<rect x="0" y="100.513" width="56.6929" height="11.3386" class="st3"/>
			</g>
			<g id="shape67-164" v:mID="67" v:groupContext="shape" transform="translate(113.386,1.42109E-014)">
				<title>Sheet.67</title>
				<path d="M0 100.51 L0 111.85" class="st4"/>
			</g>
			<g id="shape68-167" v:mID="68" v:groupContext="shape">
				<title>Sheet.68</title>
				<rect x="0" y="100.513" width="226.772" height="11.3386" class="st5"/>
				<rect x="0" y="100.513" width="226.772" height="11.3386" class="st6"/>
			</g>
			<g id="shape69-170" v:mID="69" v:groupContext="shape" transform="translate(170.079,1.42109E-014)">
				<title>Sheet.69</title>
				<path d="M0 100.51 L0 111.85" class="st4"/>
			</g>
		</g>
		<g id="shape70-173" v:mID="70" v:groupContext="shape" transform="translate(153.571,-0.8)">
			<title>Sheet.70</title>
			<desc>Dd</desc>
			<v:textBlock v:margins="rect(1,2,1,0)" v:tabSpace="42.5197"/>
			<v:textRect cx="8.50394" cy="106.182" width="17.01" height="11.3386"/>
			<rect x="0" y="100.513" width="17.0079" height="11.3386" class="st1"/>
			<text x="4.78" y="108.58" class="st2" v:langID="2057"><v:paragraph v:horizAlign="2"/><v:tabList/>Dd</text>		</g>
		<g id="shape6-176" v:mID="6" v:groupContext="shape" transform="translate(287.581,-42.1851) rotate(52.4314)">
			<title>Signal 2.6</title>
			<path d="M0 111.85 L88.38 111.85" class="st7"/>
		</g>
		<g id="shape33-181" v:mID="33" v:groupContext="shape" transform="translate(400.967,-42.1851) rotate(52.4314)">
			<title>Signal 2.33</title>
			<path d="M0 111.85 L88.38 111.85" class="st7"/>
		</g>
		<g id="shape36-186" v:mID="36" v:groupContext="shape" transform="translate(280.348,-42.1851) rotate(-52.4314) scale(-1,1)">
			<title>Signal 2.36</title>
			<path d="M0 111.85 L88.38 111.85" class="st7"/>
		</g>
		<g id="shape39-191" v:mID="39" v:groupContext="shape" transform="translate(164.128,-42.1851) rotate(-52.4314) scale(-1,1)">
			<title>Signal 2.39</title>
			<path d="M0 111.85 L88.38 111.85" class="st7"/>
		</g>
		<g id="shape98-196" v:mID="98" v:groupContext="shape" transform="translate(0.5,-100.013)">
			<title>Sheet.98</title>
			<desc>VREV32.8, doubleword</desc>
			<v:textBlock v:margins="rect(1,0,1,2)" v:tabSpace="42.5197"/>
			<v:textRect cx="45.3543" cy="106.182" width="90.71" height="11.3386"/>
			<rect x="0" y="100.513" width="90.7087" height="11.3386" class="st1"/>
			<text x="2" y="108.58" class="st2" v:langID="2057"><v:paragraph/><v:tabList/>VREV32.8, doubleword</text>		</g>
		<g id="shape99-199" v:mID="99" v:groupContext="shape" transform="translate(153.571,-100.013)">
			<title>Sheet.99</title>
			<desc>VREV32.16, doubleword</desc>
			<v:textBlock v:margins="rect(1,0,1,2)" v:tabSpace="42.5197"/>
			<v:textRect cx="45.3543" cy="106.182" width="90.71" height="11.3386"/>
			<rect x="0" y="100.513" width="90.7087" height="11.3386" class="st1"/>
			<text x="2" y="108.58" class="st2" v:langID="2057"><v:paragraph/><v:tabList/>VREV32.16, doubleword</text>		</g>
	</g>
</svg>
