<?xml version="1.0" encoding="UTF-8" standalone="no"?>
<!DOCTYPE svg PUBLIC "-//W3C//DTD SVG 1.0//EN" "http://www.w3.org/TR/2001/REC-SVG-20010904/DTD/svg10.dtd">
<!-- Generated by Microsoft Visio 11.0, SVG Export, v1.0 vtrn_doubleword_operation.svg Page-1 -->
<!-- Copyright (c) 2014 ARM Limited or its affiliates. All rights reserved. -->
<svg xmlns="http://www.w3.org/2000/svg" 
     xmlns:xlink="http://www.w3.org/1999/xlink" 
     xmlns:v="http://schemas.microsoft.com/visio/2003/SVGExtensions/" width="5.76609in"
		height="1.6716in" viewBox="0 0 415.158 120.355" xml:space="preserve" color-interpolation-filters="sRGB" class="st9">
	<v:documentProperties v:langID="1033" v:metric="true" v:viewMarkup="false"/>

	<style type="text/css">
	<![CDATA[
		.st1 {fill:none;stroke:none;stroke-linecap:butt;stroke-width:0.5}
		.st2 {fill:#000000;font-family:Arial;font-size:0.666664em}
		.st3 {fill:#ffffff;stroke:none;stroke-linecap:round;stroke-linejoin:round;stroke-width:0.0169691}
		.st4 {stroke:#000000;stroke-linecap:butt;stroke-width:0.5}
		.st5 {fill:#ffffff;visibility:hidden}
		.st6 {stroke:#000000;stroke-linecap:butt;stroke-width:0.8}
		.st7 {marker-end:url(#mrkr4-36);marker-start:url(#mrkr4-34);stroke:#000000;stroke-linecap:butt;stroke-width:0.5}
		.st8 {fill:#000000;fill-opacity:1;stroke:#000000;stroke-opacity:1;stroke-width:0.21739130434783}
		.st9 {fill:none;fill-rule:evenodd;font-size:12;overflow:visible;stroke-linecap:square;stroke-miterlimit:3}
	]]>
	</style>

	<defs id="Markers">
		<g id="lend4">
			<path d="M 2 1 L -0 0 L 2 -1 L 2 1 " style="stroke:none"/>
		</g>
		<marker id="mrkr4-34" class="st8" v:arrowType="4" v:arrowSize="1" v:setback="8.48" refX="8.48" orient="auto"
				markerUnits="strokeWidth">
			<use xlink:href="#lend4" transform="scale(4.6) "/>
		</marker>
		<marker id="mrkr4-36" class="st8" v:arrowType="4" v:arrowSize="1" v:setback="9.2" refX="-9.2" orient="auto"
				markerUnits="strokeWidth">
			<use xlink:href="#lend4" transform="scale(-4.6,-4.6) "/>
		</marker>
	</defs>
	<g v:mID="0" v:index="1" v:groupContext="foregroundPage">
		<title>Page-1</title>
		<v:pageProperties v:drawingScale="0.0393701" v:pageScale="0.0393701" v:drawingUnits="24" v:shadowOffsetX="0"
				v:shadowOffsetY="0" v:shadowType="1" v:shadowScale="0"/>
		<g id="group57-1" transform="translate(142.232,-0.8)" v:mID="57" v:groupContext="group">
			<title>Sheet.57</title>
			<g id="shape8-2" v:mID="8" v:groupContext="shape" transform="translate(2.19824E-014,-85.0394)">
				<title>Sheet.8</title>
				<desc>Dd</desc>
				<v:textBlock v:margins="rect(1,2,1,0)" v:tabSpace="42.5197"/>
				<v:textRect cx="8.50394" cy="114.686" width="17.01" height="11.3386"/>
				<rect x="0" y="109.017" width="17.0079" height="11.3386" class="st1"/>
				<text x="4.78" y="117.09" class="st2" v:langID="2057"><v:paragraph v:horizAlign="2"/><v:tabList/>Dd</text>			</g>
			<g id="shape10-5" v:mID="10" v:groupContext="shape" transform="translate(102.047,-85.0394)">
				<title>Sheet.10</title>
				<rect x="0" y="109.017" width="28.3465" height="11.3386" class="st3"/>
			</g>
			<g id="shape14-7" v:mID="14" v:groupContext="shape" transform="translate(17.0079,-85.0394)">
				<title>Sheet.14</title>
				<rect x="0" y="109.017" width="28.3465" height="11.3386" class="st3"/>
			</g>
			<g id="shape21-9" v:mID="21" v:groupContext="shape" transform="translate(45.3543,-85.0394)">
				<title>Sheet.21</title>
				<rect x="0" y="109.017" width="28.3465" height="11.3386" class="st3"/>
			</g>
			<g id="shape22-11" v:mID="22" v:groupContext="shape" transform="translate(45.3543,-85.0394)">
				<title>Sheet.22</title>
				<path d="M0 109.02 L0 120.36" class="st4"/>
			</g>
			<g id="shape36-14" v:mID="36" v:groupContext="shape" transform="translate(73.7008,-85.0394)">
				<title>Sheet.36</title>
				<rect x="0" y="109.017" width="28.3465" height="11.3386" class="st3"/>
			</g>
			<g id="shape39-16" v:mID="39" v:groupContext="shape" transform="translate(73.7008,-85.0394)">
				<title>Sheet.39</title>
				<path d="M0 109.02 L0 120.36" class="st4"/>
			</g>
			<g id="shape44-19" v:mID="44" v:groupContext="shape" transform="translate(17.0079,-85.0394)">
				<title>Sheet.44</title>
				<rect x="0" y="109.017" width="113.386" height="11.3386" class="st5"/>
				<rect x="0" y="109.017" width="113.386" height="11.3386" class="st6"/>
			</g>
			<g id="shape47-22" v:mID="47" v:groupContext="shape" transform="translate(102.047,-85.0394)">
				<title>Sheet.47</title>
				<path d="M0 109.02 L0 120.36" class="st4"/>
			</g>
			<g id="shape75-25" v:mID="75" v:groupContext="shape">
				<title>Sheet.75</title>
				<desc>Dm</desc>
				<v:textBlock v:margins="rect(1,2,1,0)" v:tabSpace="42.5197"/>
				<v:textRect cx="8.50394" cy="114.686" width="17.01" height="11.3386"/>
				<rect x="0" y="109.017" width="17.0079" height="11.3386" class="st1"/>
				<text x="2.57" y="117.09" class="st2" v:langID="2057"><v:paragraph v:horizAlign="2"/><v:tabList/>Dm</text>			</g>
			<g id="shape76-28" v:mID="76" v:groupContext="shape" transform="translate(143.514,-7.88922) rotate(68.9625)">
				<title>Signal 2.76</title>
				<path d="M4.24 120.36 L4.6 120.36 L74.36 120.36" class="st7"/>
			</g>
			<g id="shape77-37" v:mID="77" v:groupContext="shape" transform="translate(0,-107.717)">
				<title>Sheet.77</title>
				<desc>VTRN.16</desc>
				<v:textBlock v:margins="rect(1,0,1,2)" v:tabSpace="42.5197"/>
				<v:textRect cx="18.4252" cy="114.686" width="36.86" height="11.3386"/>
				<rect x="0" y="109.017" width="36.8504" height="11.3386" class="st1"/>
				<text x="2" y="117.09" class="st2" v:langID="2057"><v:paragraph/><v:tabList/>VTRN.16</text>			</g>
			<g id="shape78-40" v:mID="78" v:groupContext="shape" transform="translate(102.047,-96.378)">
				<title>Sheet.78</title>
				<desc>0</desc>
				<v:textBlock v:margins="rect(1,1,1,1)" v:tabSpace="42.5197"/>
				<v:textRect cx="14.1732" cy="114.686" width="28.35" height="11.3386"/>
				<rect x="0" y="109.017" width="28.3465" height="11.3386" class="st1"/>
				<text x="11.95" y="117.09" class="st2" v:langID="2057"><v:paragraph v:horizAlign="1"/><v:tabList/>0</text>			</g>
			<g id="shape79-43" v:mID="79" v:groupContext="shape" transform="translate(73.7008,-96.378)">
				<title>Sheet.79</title>
				<desc>1</desc>
				<v:textBlock v:margins="rect(1,1,1,1)" v:tabSpace="42.5197"/>
				<v:textRect cx="14.1732" cy="114.686" width="28.35" height="11.3386"/>
				<rect x="0" y="109.017" width="28.3465" height="11.3386" class="st1"/>
				<text x="11.95" y="117.09" class="st2" v:langID="2057"><v:paragraph v:horizAlign="1"/><v:tabList/>1</text>			</g>
			<g id="shape80-46" v:mID="80" v:groupContext="shape" transform="translate(45.3543,-96.378)">
				<title>Sheet.80</title>
				<desc>2</desc>
				<v:textBlock v:margins="rect(1,1,1,1)" v:tabSpace="42.5197"/>
				<v:textRect cx="14.1732" cy="114.686" width="28.35" height="11.3386"/>
				<rect x="0" y="109.017" width="28.3465" height="11.3386" class="st1"/>
				<text x="11.95" y="117.09" class="st2" v:langID="2057"><v:paragraph v:horizAlign="1"/><v:tabList/>2</text>			</g>
			<g id="shape81-49" v:mID="81" v:groupContext="shape" transform="translate(17.0079,-96.378)">
				<title>Sheet.81</title>
				<desc>3</desc>
				<v:textBlock v:margins="rect(1,1,1,1)" v:tabSpace="42.5197"/>
				<v:textRect cx="14.1732" cy="114.686" width="28.35" height="11.3386"/>
				<rect x="0" y="109.017" width="28.3465" height="11.3386" class="st1"/>
				<text x="11.95" y="117.09" class="st2" v:langID="2057"><v:paragraph v:horizAlign="1"/><v:tabList/>3</text>			</g>
			<g id="group48-52" transform="translate(17.0079,-2.84217E-014)" v:mID="48" v:groupContext="group">
				<title>Sheet.48</title>
				<g id="shape6-53" v:mID="6" v:groupContext="shape" transform="translate(85.0394,1.42109E-014)">
					<title>Sheet.6</title>
					<rect x="0" y="109.017" width="28.3465" height="11.3386" class="st3"/>
				</g>
				<g id="shape13-55" v:mID="13" v:groupContext="shape">
					<title>Sheet.13</title>
					<rect x="0" y="109.017" width="28.3465" height="11.3386" class="st3"/>
				</g>
				<g id="shape17-57" v:mID="17" v:groupContext="shape" transform="translate(28.3465,1.42109E-014)">
					<title>Sheet.17</title>
					<rect x="0" y="109.017" width="28.3465" height="11.3386" class="st3"/>
				</g>
				<g id="shape18-59" v:mID="18" v:groupContext="shape" transform="translate(28.3465,1.42109E-014)">
					<title>Sheet.18</title>
					<path d="M0 109.02 L0 120.36" class="st4"/>
				</g>
				<g id="shape33-62" v:mID="33" v:groupContext="shape" transform="translate(56.6929,1.42109E-014)">
					<title>Sheet.33</title>
					<rect x="0" y="109.017" width="28.3465" height="11.3386" class="st3"/>
				</g>
				<g id="shape34-64" v:mID="34" v:groupContext="shape" transform="translate(56.6929,1.42109E-014)">
					<title>Sheet.34</title>
					<path d="M0 109.02 L0 120.36" class="st4"/>
				</g>
				<g id="shape40-67" v:mID="40" v:groupContext="shape">
					<title>Sheet.40</title>
					<rect x="0" y="109.017" width="113.386" height="11.3386" class="st5"/>
					<rect x="0" y="109.017" width="113.386" height="11.3386" class="st6"/>
				</g>
				<g id="shape43-70" v:mID="43" v:groupContext="shape" transform="translate(85.0394,1.42109E-014)">
					<title>Sheet.43</title>
					<path d="M0 109.02 L0 120.36" class="st4"/>
				</g>
			</g>
			<g id="shape55-73" v:mID="55" v:groupContext="shape" transform="translate(200.207,-7.88922) rotate(68.9625)">
				<title>Signal 2.55</title>
				<path d="M4.24 120.36 L4.6 120.36 L74.36 120.36" class="st7"/>
			</g>
		</g>
		<g id="shape2-80" v:mID="2" v:groupContext="shape" transform="translate(0.5,-85.8394)">
			<title>Sheet.2</title>
			<desc>Dd</desc>
			<v:textBlock v:margins="rect(1,2,1,0)" v:tabSpace="42.5197"/>
			<v:textRect cx="8.50394" cy="114.686" width="17.01" height="11.3386"/>
			<rect x="0" y="109.017" width="17.0079" height="11.3386" class="st1"/>
			<text x="4.78" y="117.09" class="st2" v:langID="2057"><v:paragraph v:horizAlign="2"/><v:tabList/>Dd</text>		</g>
		<g id="shape4-83" v:mID="4" v:groupContext="shape" transform="translate(17.5079,-85.8394)">
			<title>Sheet.4</title>
			<rect x="0" y="109.017" width="56.6929" height="11.3386" class="st3"/>
		</g>
		<g id="shape9-85" v:mID="9" v:groupContext="shape" transform="translate(74.2008,-85.8394)">
			<title>Sheet.9</title>
			<rect x="0" y="109.017" width="56.6929" height="11.3386" class="st3"/>
		</g>
		<g id="shape11-87" v:mID="11" v:groupContext="shape" transform="translate(74.2008,-85.8394)">
			<title>Sheet.11</title>
			<path d="M0 109.02 L0 120.36" class="st4"/>
		</g>
		<g id="shape12-90" v:mID="12" v:groupContext="shape" transform="translate(17.5079,-85.8394)">
			<title>Sheet.12</title>
			<rect x="0" y="109.017" width="113.386" height="11.3386" class="st5"/>
			<rect x="0" y="109.017" width="113.386" height="11.3386" class="st6"/>
		</g>
		<g id="shape16-93" v:mID="16" v:groupContext="shape" transform="translate(0.5,-0.8)">
			<title>Sheet.16</title>
			<desc>Dm</desc>
			<v:textBlock v:margins="rect(1,2,1,0)" v:tabSpace="42.5197"/>
			<v:textRect cx="8.50394" cy="114.686" width="17.01" height="11.3386"/>
			<rect x="0" y="109.017" width="17.0079" height="11.3386" class="st1"/>
			<text x="2.57" y="117.09" class="st2" v:langID="2057"><v:paragraph v:horizAlign="2"/><v:tabList/>Dm</text>		</g>
		<g id="shape19-96" v:mID="19" v:groupContext="shape" transform="translate(141.251,-38.8661) rotate(52.4314)">
			<title>Signal 2.76</title>
			<path d="M4.24 120.36 L4.6 120.36 L88.38 120.36" class="st7"/>
		</g>
		<g id="shape20-103" v:mID="20" v:groupContext="shape" transform="translate(0.5,-108.517)">
			<title>Sheet.20</title>
			<desc>VTRN.32</desc>
			<v:textBlock v:margins="rect(1,0,1,2)" v:tabSpace="42.5197"/>
			<v:textRect cx="18.4252" cy="114.686" width="36.86" height="11.3386"/>
			<rect x="0" y="109.017" width="36.8504" height="11.3386" class="st1"/>
			<text x="2" y="117.09" class="st2" v:langID="2057"><v:paragraph/><v:tabList/>VTRN.32</text>		</g>
		<g id="shape23-106" v:mID="23" v:groupContext="shape" transform="translate(74.2008,-97.178)">
			<title>Sheet.23</title>
			<desc>0</desc>
			<v:textBlock v:margins="rect(1,1,1,1)" v:tabSpace="42.5197"/>
			<v:textRect cx="28.3465" cy="114.686" width="56.7" height="11.3386"/>
			<rect x="0" y="109.017" width="56.6929" height="11.3386" class="st1"/>
			<text x="26.12" y="117.09" class="st2" v:langID="2057"><v:paragraph v:horizAlign="1"/><v:tabList/>0</text>		</g>
		<g id="shape24-109" v:mID="24" v:groupContext="shape" transform="translate(17.5079,-97.178)">
			<title>Sheet.24</title>
			<desc>1</desc>
			<v:textBlock v:margins="rect(1,1,1,1)" v:tabSpace="42.5197"/>
			<v:textRect cx="28.3465" cy="114.686" width="56.7" height="11.3386"/>
			<rect x="0" y="109.017" width="56.6929" height="11.3386" class="st1"/>
			<text x="26.12" y="117.09" class="st2" v:langID="2057"><v:paragraph v:horizAlign="1"/><v:tabList/>1</text>		</g>
		<g id="group27-112" transform="translate(17.5079,-0.8)" v:mID="27" v:groupContext="group">
			<title>Sheet.27</title>
			<g id="shape29-113" v:mID="29" v:groupContext="shape">
				<title>Sheet.29</title>
				<rect x="0" y="109.017" width="56.6929" height="11.3386" class="st3"/>
			</g>
			<g id="shape32-115" v:mID="32" v:groupContext="shape" transform="translate(56.6929,1.42109E-014)">
				<title>Sheet.32</title>
				<rect x="0" y="109.017" width="56.6929" height="11.3386" class="st3"/>
			</g>
			<g id="shape35-117" v:mID="35" v:groupContext="shape" transform="translate(56.6929,1.42109E-014)">
				<title>Sheet.35</title>
				<path d="M0 109.02 L0 120.36" class="st4"/>
			</g>
			<g id="shape37-120" v:mID="37" v:groupContext="shape">
				<title>Sheet.37</title>
				<rect x="0" y="109.017" width="113.386" height="11.3386" class="st5"/>
				<rect x="0" y="109.017" width="113.386" height="11.3386" class="st6"/>
			</g>
		</g>
		<g id="group149-123" transform="translate(283.965,-0.8)" v:mID="149" v:groupContext="group">
			<title>Sheet.149</title>
			<g id="shape90-124" v:mID="90" v:groupContext="shape" transform="translate(-4.29656E-014,-85.0394)">
				<title>Sheet.90</title>
				<desc>Dd</desc>
				<v:textBlock v:margins="rect(1,2,1,0)" v:tabSpace="42.5197"/>
				<v:textRect cx="8.50394" cy="114.686" width="17.01" height="11.3386"/>
				<rect x="0" y="109.017" width="17.0079" height="11.3386" class="st1"/>
				<text x="4.78" y="117.09" class="st2" v:langID="2057"><v:paragraph v:horizAlign="2"/><v:tabList/>Dd</text>			</g>
			<g id="shape91-127" v:mID="91" v:groupContext="shape" transform="translate(102.047,-85.0394)">
				<title>Sheet.91</title>
				<rect x="0" y="109.017" width="14.1732" height="11.3386" class="st3"/>
			</g>
			<g id="shape92-129" v:mID="92" v:groupContext="shape" transform="translate(116.22,-85.0394)">
				<title>Sheet.92</title>
				<rect x="0" y="109.017" width="14.1732" height="11.3386" class="st3"/>
			</g>
			<g id="shape93-131" v:mID="93" v:groupContext="shape" transform="translate(17.0079,-85.0394)">
				<title>Sheet.93</title>
				<rect x="0" y="109.017" width="14.1732" height="11.3386" class="st3"/>
			</g>
			<g id="shape94-133" v:mID="94" v:groupContext="shape" transform="translate(31.1811,-85.0394)">
				<title>Sheet.94</title>
				<rect x="0" y="109.017" width="14.1732" height="11.3386" class="st3"/>
			</g>
			<g id="shape95-135" v:mID="95" v:groupContext="shape" transform="translate(31.1811,-85.0394)">
				<title>Sheet.95</title>
				<path d="M0 109.02 L0 120.36" class="st4"/>
			</g>
			<g id="shape96-138" v:mID="96" v:groupContext="shape" transform="translate(45.3543,-85.0394)">
				<title>Sheet.96</title>
				<rect x="0" y="109.017" width="14.1732" height="11.3386" class="st3"/>
			</g>
			<g id="shape99-140" v:mID="99" v:groupContext="shape" transform="translate(45.3543,-85.0394)">
				<title>Sheet.99</title>
				<path d="M0 109.02 L0 120.36" class="st4"/>
			</g>
			<g id="shape108-143" v:mID="108" v:groupContext="shape" transform="translate(59.5276,-85.0394)">
				<title>Sheet.108</title>
				<rect x="0" y="109.017" width="14.1732" height="11.3386" class="st3"/>
			</g>
			<g id="shape109-145" v:mID="109" v:groupContext="shape" transform="translate(59.5276,-85.0394)">
				<title>Sheet.109</title>
				<path d="M0 109.02 L0 120.36" class="st4"/>
			</g>
			<g id="shape110-148" v:mID="110" v:groupContext="shape" transform="translate(73.7008,-85.0394)">
				<title>Sheet.110</title>
				<rect x="0" y="109.017" width="14.1732" height="11.3386" class="st3"/>
			</g>
			<g id="shape111-150" v:mID="111" v:groupContext="shape" transform="translate(73.7008,-85.0394)">
				<title>Sheet.111</title>
				<path d="M0 109.02 L0 120.36" class="st4"/>
			</g>
			<g id="shape112-153" v:mID="112" v:groupContext="shape" transform="translate(87.874,-85.0394)">
				<title>Sheet.112</title>
				<rect x="0" y="109.017" width="14.1732" height="11.3386" class="st3"/>
			</g>
			<g id="shape113-155" v:mID="113" v:groupContext="shape" transform="translate(87.874,-85.0394)">
				<title>Sheet.113</title>
				<path d="M0 109.02 L0 120.36" class="st4"/>
			</g>
			<g id="shape114-158" v:mID="114" v:groupContext="shape" transform="translate(17.0079,-85.0394)">
				<title>Sheet.114</title>
				<rect x="0" y="109.017" width="113.386" height="11.3386" class="st5"/>
				<rect x="0" y="109.017" width="113.386" height="11.3386" class="st6"/>
			</g>
			<g id="shape115-161" v:mID="115" v:groupContext="shape" transform="translate(102.047,-85.0394)">
				<title>Sheet.115</title>
				<path d="M0 109.02 L0 120.36" class="st4"/>
			</g>
			<g id="shape116-164" v:mID="116" v:groupContext="shape" transform="translate(116.22,-85.0394)">
				<title>Sheet.116</title>
				<path d="M0 109.02 L0 120.36" class="st4"/>
			</g>
			<g id="group117-167" transform="translate(17.0079,-2.84217E-014)" v:mID="117" v:groupContext="group">
				<title>Sheet.117</title>
				<g id="shape118-168" v:mID="118" v:groupContext="shape" transform="translate(85.0394,1.42109E-014)">
					<title>Sheet.118</title>
					<rect x="0" y="109.017" width="14.1732" height="11.3386" class="st3"/>
				</g>
				<g id="shape119-170" v:mID="119" v:groupContext="shape" transform="translate(99.2126,1.42109E-014)">
					<title>Sheet.119</title>
					<rect x="0" y="109.017" width="14.1732" height="11.3386" class="st3"/>
				</g>
				<g id="shape120-172" v:mID="120" v:groupContext="shape">
					<title>Sheet.120</title>
					<rect x="0" y="109.017" width="14.1732" height="11.3386" class="st3"/>
				</g>
				<g id="shape121-174" v:mID="121" v:groupContext="shape" transform="translate(14.1732,1.42109E-014)">
					<title>Sheet.121</title>
					<rect x="0" y="109.017" width="14.1732" height="11.3386" class="st3"/>
				</g>
				<g id="shape122-176" v:mID="122" v:groupContext="shape" transform="translate(14.1732,1.42109E-014)">
					<title>Sheet.122</title>
					<path d="M0 109.02 L0 120.36" class="st4"/>
				</g>
				<g id="shape123-179" v:mID="123" v:groupContext="shape" transform="translate(28.3465,1.42109E-014)">
					<title>Sheet.123</title>
					<rect x="0" y="109.017" width="14.1732" height="11.3386" class="st3"/>
				</g>
				<g id="shape124-181" v:mID="124" v:groupContext="shape" transform="translate(28.3465,1.42109E-014)">
					<title>Sheet.124</title>
					<path d="M0 109.02 L0 120.36" class="st4"/>
				</g>
				<g id="shape125-184" v:mID="125" v:groupContext="shape" transform="translate(42.5197,1.42109E-014)">
					<title>Sheet.125</title>
					<rect x="0" y="109.017" width="14.1732" height="11.3386" class="st3"/>
				</g>
				<g id="shape126-186" v:mID="126" v:groupContext="shape" transform="translate(42.5197,1.42109E-014)">
					<title>Sheet.126</title>
					<path d="M0 109.02 L0 120.36" class="st4"/>
				</g>
				<g id="shape127-189" v:mID="127" v:groupContext="shape" transform="translate(56.6929,1.42109E-014)">
					<title>Sheet.127</title>
					<rect x="0" y="109.017" width="14.1732" height="11.3386" class="st3"/>
				</g>
				<g id="shape128-191" v:mID="128" v:groupContext="shape" transform="translate(56.6929,1.42109E-014)">
					<title>Sheet.128</title>
					<path d="M0 109.02 L0 120.36" class="st4"/>
				</g>
				<g id="shape129-194" v:mID="129" v:groupContext="shape" transform="translate(70.8661,1.42109E-014)">
					<title>Sheet.129</title>
					<rect x="0" y="109.017" width="14.1732" height="11.3386" class="st3"/>
				</g>
				<g id="shape130-196" v:mID="130" v:groupContext="shape" transform="translate(70.8661,1.42109E-014)">
					<title>Sheet.130</title>
					<path d="M0 109.02 L0 120.36" class="st4"/>
				</g>
				<g id="shape131-199" v:mID="131" v:groupContext="shape">
					<title>Sheet.131</title>
					<rect x="0" y="109.017" width="113.386" height="11.3386" class="st5"/>
					<rect x="0" y="109.017" width="113.386" height="11.3386" class="st6"/>
				</g>
				<g id="shape132-202" v:mID="132" v:groupContext="shape" transform="translate(85.0394,1.42109E-014)">
					<title>Sheet.132</title>
					<path d="M0 109.02 L0 120.36" class="st4"/>
				</g>
				<g id="shape133-205" v:mID="133" v:groupContext="shape" transform="translate(99.2126,1.42109E-014)">
					<title>Sheet.133</title>
					<path d="M0 109.02 L0 120.36" class="st4"/>
				</g>
			</g>
			<g id="shape134-208" v:mID="134" v:groupContext="shape">
				<title>Sheet.134</title>
				<desc>Dm</desc>
				<v:textBlock v:margins="rect(1,2,1,0)" v:tabSpace="42.5197"/>
				<v:textRect cx="8.50394" cy="114.686" width="17.01" height="11.3386"/>
				<rect x="0" y="109.017" width="17.0079" height="11.3386" class="st1"/>
				<text x="2.57" y="117.09" class="st2" v:langID="2057"><v:paragraph v:horizAlign="2"/><v:tabList/>Dm</text>			</g>
			<g id="shape135-211" v:mID="135" v:groupContext="shape" transform="translate(142.284,12.587) rotate(79.1145)">
				<title>Signal 2</title>
				<path d="M4.24 120.36 L4.6 120.36 L70.45 120.36" class="st7"/>
			</g>
			<g id="shape136-218" v:mID="136" v:groupContext="shape" transform="translate(0,-107.717)">
				<title>Sheet.136</title>
				<desc>VTRN.8</desc>
				<v:textBlock v:margins="rect(1,0,1,2)" v:tabSpace="42.5197"/>
				<v:textRect cx="18.4252" cy="114.686" width="36.86" height="11.3386"/>
				<rect x="0" y="109.017" width="36.8504" height="11.3386" class="st1"/>
				<text x="2" y="117.09" class="st2" v:langID="2057"><v:paragraph/><v:tabList/>VTRN.8</text>			</g>
			<g id="shape137-221" v:mID="137" v:groupContext="shape" transform="translate(116.22,-96.378)">
				<title>Sheet.137</title>
				<desc>0</desc>
				<v:textBlock v:margins="rect(1,1,1,1)" v:tabSpace="42.5197"/>
				<v:textRect cx="7.08661" cy="114.686" width="14.18" height="11.3386"/>
				<rect x="0" y="109.017" width="14.1732" height="11.3386" class="st1"/>
				<text x="4.86" y="117.09" class="st2" v:langID="2057"><v:paragraph v:horizAlign="1"/><v:tabList/>0</text>			</g>
			<g id="shape138-224" v:mID="138" v:groupContext="shape" transform="translate(102.047,-96.378)">
				<title>Sheet.138</title>
				<desc>1</desc>
				<v:textBlock v:margins="rect(1,1,1,1)" v:tabSpace="42.5197"/>
				<v:textRect cx="7.08661" cy="114.686" width="14.18" height="11.3386"/>
				<rect x="0" y="109.017" width="14.1732" height="11.3386" class="st1"/>
				<text x="4.86" y="117.09" class="st2" v:langID="2057"><v:paragraph v:horizAlign="1"/><v:tabList/>1</text>			</g>
			<g id="shape139-227" v:mID="139" v:groupContext="shape" transform="translate(87.874,-96.378)">
				<title>Sheet.139</title>
				<desc>2</desc>
				<v:textBlock v:margins="rect(1,1,1,1)" v:tabSpace="42.5197"/>
				<v:textRect cx="7.08661" cy="114.686" width="14.18" height="11.3386"/>
				<rect x="0" y="109.017" width="14.1732" height="11.3386" class="st1"/>
				<text x="4.86" y="117.09" class="st2" v:langID="2057"><v:paragraph v:horizAlign="1"/><v:tabList/>2</text>			</g>
			<g id="shape140-230" v:mID="140" v:groupContext="shape" transform="translate(73.7008,-96.378)">
				<title>Sheet.140</title>
				<desc>3</desc>
				<v:textBlock v:margins="rect(1,1,1,1)" v:tabSpace="42.5197"/>
				<v:textRect cx="7.08661" cy="114.686" width="14.18" height="11.3386"/>
				<rect x="0" y="109.017" width="14.1732" height="11.3386" class="st1"/>
				<text x="4.86" y="117.09" class="st2" v:langID="2057"><v:paragraph v:horizAlign="1"/><v:tabList/>3</text>			</g>
			<g id="shape141-233" v:mID="141" v:groupContext="shape" transform="translate(59.5276,-96.378)">
				<title>Sheet.141</title>
				<desc>4</desc>
				<v:textBlock v:margins="rect(1,1,1,1)" v:tabSpace="42.5197"/>
				<v:textRect cx="7.08661" cy="114.686" width="14.18" height="11.3386"/>
				<rect x="0" y="109.017" width="14.1732" height="11.3386" class="st1"/>
				<text x="4.86" y="117.09" class="st2" v:langID="2057"><v:paragraph v:horizAlign="1"/><v:tabList/>4</text>			</g>
			<g id="shape142-236" v:mID="142" v:groupContext="shape" transform="translate(45.3543,-96.378)">
				<title>Sheet.142</title>
				<desc>5</desc>
				<v:textBlock v:margins="rect(1,1,1,1)" v:tabSpace="42.5197"/>
				<v:textRect cx="7.08661" cy="114.686" width="14.18" height="11.3386"/>
				<rect x="0" y="109.017" width="14.1732" height="11.3386" class="st1"/>
				<text x="4.86" y="117.09" class="st2" v:langID="2057"><v:paragraph v:horizAlign="1"/><v:tabList/>5</text>			</g>
			<g id="shape143-239" v:mID="143" v:groupContext="shape" transform="translate(31.1811,-96.378)">
				<title>Sheet.143</title>
				<desc>6</desc>
				<v:textBlock v:margins="rect(1,1,1,1)" v:tabSpace="42.5197"/>
				<v:textRect cx="7.08661" cy="114.686" width="14.18" height="11.3386"/>
				<rect x="0" y="109.017" width="14.1732" height="11.3386" class="st1"/>
				<text x="4.86" y="117.09" class="st2" v:langID="2057"><v:paragraph v:horizAlign="1"/><v:tabList/>6</text>			</g>
			<g id="shape144-242" v:mID="144" v:groupContext="shape" transform="translate(17.0079,-96.378)">
				<title>Sheet.144</title>
				<desc>7</desc>
				<v:textBlock v:margins="rect(1,1,1,1)" v:tabSpace="42.5197"/>
				<v:textRect cx="7.08661" cy="114.686" width="14.18" height="11.3386"/>
				<rect x="0" y="109.017" width="14.1732" height="11.3386" class="st1"/>
				<text x="4.86" y="117.09" class="st2" v:langID="2057"><v:paragraph v:horizAlign="1"/><v:tabList/>7</text>			</g>
			<g id="shape145-245" v:mID="145" v:groupContext="shape" transform="translate(170.63,12.587) rotate(79.1145)">
				<title>Signal 2.58</title>
				<path d="M4.24 120.36 L4.6 120.36 L70.45 120.36" class="st7"/>
			</g>
			<g id="shape146-252" v:mID="146" v:groupContext="shape" transform="translate(198.977,12.587) rotate(79.1145)">
				<title>Signal 2.60</title>
				<path d="M4.24 120.36 L4.6 120.36 L70.45 120.36" class="st7"/>
			</g>
			<g id="shape147-259" v:mID="147" v:groupContext="shape" transform="translate(227.323,12.587) rotate(79.1145)">
				<title>Signal 2.71</title>
				<path d="M4.24 120.36 L4.6 120.36 L70.45 120.36" class="st7"/>
			</g>
		</g>
	</g>
</svg>
